%
M48
M72
T01C0.0120
T02C0.0866
T03C0.2874
%
T01
X3000Y3222
X4181Y3222
X4417Y3576
X5598Y5269
X6189Y6056
X6465Y6529
X6780Y6844
X7134Y7395
X7370Y7828
X8433Y5387
X10402Y4127
X10283Y3222
X9969Y3222
X9496Y3222
X12016Y3379
X11780Y505
X12370Y505
X11701Y6450
X14772Y8497
X15559Y10111
X16543Y12119
X16504Y12434
X15953Y12395
X15677Y13930
X16583Y14127
X16898Y14521
X17961Y13064
X14457Y15623
X13748Y14324
X14063Y14285
X11740Y12631
X11504Y12867
X11425Y13182
X10992Y13379
X10992Y13694
X11622Y13694
X11346Y12395
X11898Y12159
X11898Y11056
X11701Y10544
X13354Y11174
X13472Y11962
X9496Y13930
X6425Y14796
X5913Y14914
X6425Y13891
X5598Y13379
X4181Y12867
X4260Y12355
X19220Y4048
T02
X10008Y16292
T03
X10008Y6430
M30
