G75*
G70*
%OFA0B0*%
%FSLAX24Y24*%
%IPPOS*%
%LPD*%
%AMOC8*
5,1,8,0,0,1.08239X$1,22.5*
%
%ADD10C,0.0000*%
%ADD11C,0.0060*%
%ADD12C,0.0240*%
D10*
X000303Y000269D02*
X019713Y000269D01*
X019713Y019166D01*
X000303Y019166D01*
X000303Y000269D01*
X008571Y006430D02*
X008573Y006505D01*
X008579Y006580D01*
X008589Y006655D01*
X008602Y006729D01*
X008620Y006802D01*
X008641Y006874D01*
X008666Y006945D01*
X008695Y007014D01*
X008728Y007082D01*
X008764Y007148D01*
X008803Y007213D01*
X008845Y007275D01*
X008891Y007334D01*
X008940Y007392D01*
X008992Y007446D01*
X009046Y007498D01*
X009104Y007547D01*
X009163Y007593D01*
X009225Y007635D01*
X009289Y007674D01*
X009356Y007710D01*
X009424Y007743D01*
X009493Y007772D01*
X009564Y007797D01*
X009636Y007818D01*
X009709Y007836D01*
X009783Y007849D01*
X009858Y007859D01*
X009933Y007865D01*
X010008Y007867D01*
X010083Y007865D01*
X010158Y007859D01*
X010233Y007849D01*
X010307Y007836D01*
X010380Y007818D01*
X010452Y007797D01*
X010523Y007772D01*
X010592Y007743D01*
X010660Y007710D01*
X010726Y007674D01*
X010791Y007635D01*
X010853Y007593D01*
X010912Y007547D01*
X010970Y007498D01*
X011024Y007446D01*
X011076Y007392D01*
X011125Y007334D01*
X011171Y007275D01*
X011213Y007213D01*
X011252Y007149D01*
X011288Y007082D01*
X011321Y007014D01*
X011350Y006945D01*
X011375Y006874D01*
X011396Y006802D01*
X011414Y006729D01*
X011427Y006655D01*
X011437Y006580D01*
X011443Y006505D01*
X011445Y006430D01*
X011443Y006355D01*
X011437Y006280D01*
X011427Y006205D01*
X011414Y006131D01*
X011396Y006058D01*
X011375Y005986D01*
X011350Y005915D01*
X011321Y005846D01*
X011288Y005778D01*
X011252Y005712D01*
X011213Y005647D01*
X011171Y005585D01*
X011125Y005526D01*
X011076Y005468D01*
X011024Y005414D01*
X010970Y005362D01*
X010912Y005313D01*
X010853Y005267D01*
X010791Y005225D01*
X010727Y005186D01*
X010660Y005150D01*
X010592Y005117D01*
X010523Y005088D01*
X010452Y005063D01*
X010380Y005042D01*
X010307Y005024D01*
X010233Y005011D01*
X010158Y005001D01*
X010083Y004995D01*
X010008Y004993D01*
X009933Y004995D01*
X009858Y005001D01*
X009783Y005011D01*
X009709Y005024D01*
X009636Y005042D01*
X009564Y005063D01*
X009493Y005088D01*
X009424Y005117D01*
X009356Y005150D01*
X009290Y005186D01*
X009225Y005225D01*
X009163Y005267D01*
X009104Y005313D01*
X009046Y005362D01*
X008992Y005414D01*
X008940Y005468D01*
X008891Y005526D01*
X008845Y005585D01*
X008803Y005647D01*
X008764Y005711D01*
X008728Y005778D01*
X008695Y005846D01*
X008666Y005915D01*
X008641Y005986D01*
X008620Y006058D01*
X008602Y006131D01*
X008589Y006205D01*
X008579Y006280D01*
X008573Y006355D01*
X008571Y006430D01*
X009575Y016292D02*
X009577Y016333D01*
X009583Y016374D01*
X009593Y016414D01*
X009606Y016453D01*
X009623Y016490D01*
X009644Y016526D01*
X009668Y016560D01*
X009695Y016591D01*
X009724Y016619D01*
X009757Y016645D01*
X009791Y016667D01*
X009828Y016686D01*
X009866Y016701D01*
X009906Y016713D01*
X009946Y016721D01*
X009987Y016725D01*
X010029Y016725D01*
X010070Y016721D01*
X010110Y016713D01*
X010150Y016701D01*
X010188Y016686D01*
X010224Y016667D01*
X010259Y016645D01*
X010292Y016619D01*
X010321Y016591D01*
X010348Y016560D01*
X010372Y016526D01*
X010393Y016490D01*
X010410Y016453D01*
X010423Y016414D01*
X010433Y016374D01*
X010439Y016333D01*
X010441Y016292D01*
X010439Y016251D01*
X010433Y016210D01*
X010423Y016170D01*
X010410Y016131D01*
X010393Y016094D01*
X010372Y016058D01*
X010348Y016024D01*
X010321Y015993D01*
X010292Y015965D01*
X010259Y015939D01*
X010225Y015917D01*
X010188Y015898D01*
X010150Y015883D01*
X010110Y015871D01*
X010070Y015863D01*
X010029Y015859D01*
X009987Y015859D01*
X009946Y015863D01*
X009906Y015871D01*
X009866Y015883D01*
X009828Y015898D01*
X009792Y015917D01*
X009757Y015939D01*
X009724Y015965D01*
X009695Y015993D01*
X009668Y016024D01*
X009644Y016058D01*
X009623Y016094D01*
X009606Y016131D01*
X009593Y016170D01*
X009583Y016210D01*
X009577Y016251D01*
X009575Y016292D01*
D11*
X009417Y014166D02*
X013591Y014166D01*
X013669Y014088D01*
X013866Y014088D01*
X014063Y014285D01*
X013748Y014324D02*
X006543Y014324D01*
X005598Y013379D01*
X006425Y013891D02*
X009142Y013891D01*
X009417Y014166D01*
X009496Y013930D02*
X015677Y013930D01*
X016150Y014560D02*
X016583Y014127D01*
X016780Y013930D01*
X016780Y010820D01*
X014417Y008458D01*
X014417Y007277D01*
X011780Y004639D01*
X011780Y000505D01*
X012016Y000859D02*
X012370Y000505D01*
X012016Y000859D02*
X012016Y003379D01*
X011661Y004718D02*
X010283Y003340D01*
X010283Y003222D01*
X009969Y003222D02*
X011504Y004757D01*
X011504Y005938D01*
X015559Y009993D01*
X015559Y010111D01*
X016543Y010781D02*
X011661Y005899D01*
X011661Y004718D01*
X010402Y004127D02*
X009496Y003222D01*
X008433Y005387D02*
X008433Y007080D01*
X009378Y008025D01*
X010520Y008025D01*
X013591Y011096D01*
X013591Y011253D01*
X013472Y011371D01*
X013472Y011962D01*
X013354Y011174D02*
X012882Y011174D01*
X011898Y012159D01*
X011740Y012631D02*
X011268Y012631D01*
X008079Y009442D01*
X008079Y007631D01*
X005717Y005269D01*
X005598Y005269D01*
X005559Y005033D02*
X005677Y005033D01*
X011346Y010702D01*
X011346Y012395D01*
X015953Y012395D01*
X016504Y012434D02*
X011701Y007631D01*
X011701Y006450D01*
X014772Y008497D02*
X019220Y004048D01*
X016543Y010781D02*
X016543Y012119D01*
X017961Y013064D02*
X016228Y014796D01*
X006425Y014796D01*
X006465Y014560D02*
X016150Y014560D01*
X016386Y015033D02*
X016898Y014521D01*
X016386Y015033D02*
X006346Y015033D01*
X004181Y012867D01*
X004260Y012355D02*
X006465Y014560D01*
X006031Y014914D02*
X006740Y015623D01*
X014457Y015623D01*
X011622Y013694D02*
X007606Y009678D01*
X007606Y007749D01*
X007252Y007395D01*
X007134Y007395D01*
X007370Y007828D02*
X007370Y009639D01*
X010992Y013261D01*
X010992Y013379D01*
X010992Y013694D02*
X006465Y009166D01*
X006465Y006529D01*
X006780Y006844D02*
X006898Y006844D01*
X007764Y007710D01*
X007764Y009521D01*
X011425Y013182D01*
X011504Y012867D02*
X011307Y012867D01*
X007921Y009481D01*
X007921Y007670D01*
X006307Y006056D01*
X006189Y006056D01*
X005559Y005033D02*
X003748Y003222D01*
X003000Y003222D01*
X004181Y003222D02*
X004378Y003222D01*
X011701Y010544D01*
X011898Y011056D02*
X004417Y003576D01*
X005913Y014914D02*
X006031Y014914D01*
D12*
X005913Y014914D03*
X006425Y014796D03*
X006425Y013891D03*
X005598Y013379D03*
X004181Y012867D03*
X004260Y012355D03*
X007370Y007828D03*
X007134Y007395D03*
X006780Y006844D03*
X006465Y006529D03*
X006189Y006056D03*
X005598Y005269D03*
X004417Y003576D03*
X004181Y003222D03*
X003000Y003222D03*
X008433Y005387D03*
X010402Y004127D03*
X010283Y003222D03*
X009969Y003222D03*
X009496Y003222D03*
X012016Y003379D03*
X011780Y000505D03*
X012370Y000505D03*
X011701Y006450D03*
X014772Y008497D03*
X015559Y010111D03*
X016543Y012119D03*
X016504Y012434D03*
X015953Y012395D03*
X015677Y013930D03*
X016583Y014127D03*
X016898Y014521D03*
X017961Y013064D03*
X014457Y015623D03*
X013748Y014324D03*
X014063Y014285D03*
X011740Y012631D03*
X011504Y012867D03*
X011425Y013182D03*
X010992Y013379D03*
X010992Y013694D03*
X011622Y013694D03*
X011346Y012395D03*
X011898Y012159D03*
X011898Y011056D03*
X011701Y010544D03*
X013354Y011174D03*
X013472Y011962D03*
X009496Y013930D03*
X019220Y004048D03*
M02*
