G04 EAGLE Gerber RS-274X export*
G75*
%MOMM*%
%FSLAX34Y34*%
%LPD*%
%INTop Copper*%
%IPPOS*%
%AMOC8*
5,1,8,0,0,1.08239X$1,22.5*%
G01*
%ADD10R,2.000000X1.200000*%
%ADD11R,2.000000X0.600000*%
%ADD12R,1.400000X6.000000*%
%ADD13R,1.000000X6.000000*%
%ADD14R,1.300000X1.600000*%
%ADD15R,0.600000X2.200000*%
%ADD16R,2.200000X0.600000*%
%ADD17R,1.300000X1.500000*%
%ADD18R,1.168400X0.762000*%
%ADD19C,0.152400*%
%ADD20R,0.762000X1.168400*%
%ADD21C,0.654800*%

G36*
X21282Y69242D02*
X21282Y69242D01*
X21301Y69240D01*
X21403Y69262D01*
X21505Y69279D01*
X21522Y69288D01*
X21542Y69292D01*
X21631Y69345D01*
X21722Y69394D01*
X21736Y69408D01*
X21753Y69418D01*
X21820Y69497D01*
X21891Y69572D01*
X21900Y69590D01*
X21913Y69605D01*
X21952Y69701D01*
X21995Y69795D01*
X21997Y69815D01*
X22005Y69833D01*
X22023Y70000D01*
X22023Y72541D01*
X27888Y72541D01*
X27921Y72537D01*
X28039Y72524D01*
X28044Y72525D01*
X28048Y72525D01*
X28163Y72551D01*
X28280Y72577D01*
X28283Y72579D01*
X28287Y72580D01*
X28389Y72642D01*
X28491Y72703D01*
X28494Y72706D01*
X28497Y72708D01*
X28573Y72799D01*
X28651Y72890D01*
X28652Y72894D01*
X28655Y72897D01*
X28698Y73006D01*
X28743Y73118D01*
X28743Y73123D01*
X28745Y73126D01*
X28745Y73139D01*
X28761Y73284D01*
X28761Y188685D01*
X69736Y229660D01*
X69778Y229718D01*
X69828Y229770D01*
X69850Y229817D01*
X69880Y229859D01*
X69901Y229928D01*
X69931Y229993D01*
X69937Y230045D01*
X69952Y230095D01*
X69950Y230166D01*
X69958Y230237D01*
X69947Y230288D01*
X69946Y230340D01*
X69921Y230408D01*
X69906Y230478D01*
X69879Y230522D01*
X69861Y230571D01*
X69817Y230627D01*
X69780Y230689D01*
X69740Y230723D01*
X69708Y230763D01*
X69647Y230802D01*
X69593Y230849D01*
X69545Y230868D01*
X69501Y230896D01*
X69431Y230914D01*
X69365Y230941D01*
X69293Y230949D01*
X69262Y230957D01*
X69239Y230955D01*
X69198Y230959D01*
X65023Y230959D01*
X65023Y238738D01*
X65020Y238758D01*
X65022Y238777D01*
X65000Y238879D01*
X64983Y238981D01*
X64974Y238998D01*
X64970Y239018D01*
X64917Y239107D01*
X64868Y239198D01*
X64854Y239212D01*
X64844Y239229D01*
X64765Y239296D01*
X64690Y239367D01*
X64672Y239376D01*
X64657Y239389D01*
X64561Y239428D01*
X64467Y239471D01*
X64447Y239473D01*
X64429Y239481D01*
X64262Y239499D01*
X63499Y239499D01*
X63499Y240262D01*
X63496Y240282D01*
X63498Y240301D01*
X63476Y240403D01*
X63459Y240505D01*
X63450Y240522D01*
X63446Y240542D01*
X63393Y240631D01*
X63344Y240722D01*
X63330Y240736D01*
X63320Y240753D01*
X63241Y240820D01*
X63166Y240891D01*
X63148Y240900D01*
X63133Y240913D01*
X63037Y240952D01*
X62943Y240995D01*
X62923Y240997D01*
X62905Y241005D01*
X62738Y241023D01*
X50959Y241023D01*
X50959Y245400D01*
X50956Y245420D01*
X50958Y245439D01*
X50936Y245541D01*
X50920Y245643D01*
X50910Y245660D01*
X50906Y245680D01*
X50853Y245769D01*
X50804Y245860D01*
X50790Y245874D01*
X50780Y245891D01*
X50701Y245958D01*
X50626Y246030D01*
X50608Y246038D01*
X50593Y246051D01*
X50497Y246090D01*
X50403Y246133D01*
X50383Y246135D01*
X50365Y246143D01*
X50198Y246161D01*
X47361Y246161D01*
X47361Y359090D01*
X47347Y359180D01*
X47339Y359271D01*
X47327Y359300D01*
X47322Y359332D01*
X47279Y359413D01*
X47243Y359497D01*
X47217Y359529D01*
X47206Y359550D01*
X47183Y359572D01*
X47138Y359628D01*
X46713Y360053D01*
X46713Y394947D01*
X87053Y435287D01*
X339947Y435287D01*
X389429Y385805D01*
X389437Y385790D01*
X389440Y385787D01*
X389442Y385784D01*
X389528Y385702D01*
X389613Y385619D01*
X389617Y385617D01*
X389620Y385614D01*
X389728Y385564D01*
X389835Y385513D01*
X389839Y385512D01*
X389843Y385511D01*
X389960Y385498D01*
X390079Y385483D01*
X390084Y385484D01*
X390087Y385484D01*
X390101Y385486D01*
X390245Y385508D01*
X390365Y385541D01*
X392201Y385541D01*
X392201Y379000D01*
X392204Y378980D01*
X392202Y378961D01*
X392224Y378859D01*
X392240Y378757D01*
X392250Y378740D01*
X392254Y378720D01*
X392307Y378631D01*
X392356Y378540D01*
X392370Y378526D01*
X392380Y378509D01*
X392459Y378442D01*
X392534Y378371D01*
X392552Y378362D01*
X392567Y378349D01*
X392663Y378310D01*
X392757Y378267D01*
X392777Y378265D01*
X392795Y378257D01*
X392962Y378239D01*
X394438Y378239D01*
X394458Y378242D01*
X394477Y378240D01*
X394579Y378262D01*
X394681Y378279D01*
X394698Y378288D01*
X394718Y378292D01*
X394807Y378345D01*
X394898Y378394D01*
X394912Y378408D01*
X394929Y378418D01*
X394996Y378497D01*
X395068Y378572D01*
X395076Y378590D01*
X395089Y378605D01*
X395128Y378701D01*
X395171Y378795D01*
X395173Y378815D01*
X395181Y378833D01*
X395199Y379000D01*
X395199Y385541D01*
X397000Y385541D01*
X397020Y385544D01*
X397039Y385542D01*
X397141Y385564D01*
X397243Y385580D01*
X397260Y385590D01*
X397280Y385594D01*
X397369Y385647D01*
X397460Y385696D01*
X397474Y385710D01*
X397491Y385720D01*
X397558Y385799D01*
X397630Y385874D01*
X397638Y385892D01*
X397651Y385907D01*
X397690Y386003D01*
X397733Y386097D01*
X397735Y386117D01*
X397743Y386135D01*
X397761Y386302D01*
X397761Y404498D01*
X397758Y404518D01*
X397760Y404537D01*
X397738Y404639D01*
X397722Y404741D01*
X397712Y404758D01*
X397708Y404778D01*
X397655Y404867D01*
X397606Y404958D01*
X397592Y404972D01*
X397582Y404989D01*
X397503Y405056D01*
X397428Y405128D01*
X397410Y405136D01*
X397395Y405149D01*
X397299Y405188D01*
X397205Y405231D01*
X397185Y405233D01*
X397167Y405241D01*
X397000Y405259D01*
X391823Y405259D01*
X391823Y415038D01*
X391820Y415058D01*
X391822Y415077D01*
X391800Y415179D01*
X391783Y415281D01*
X391774Y415298D01*
X391770Y415318D01*
X391717Y415407D01*
X391668Y415498D01*
X391654Y415512D01*
X391644Y415529D01*
X391565Y415596D01*
X391490Y415667D01*
X391472Y415676D01*
X391457Y415689D01*
X391361Y415728D01*
X391267Y415771D01*
X391247Y415773D01*
X391229Y415781D01*
X391062Y415799D01*
X390299Y415799D01*
X390299Y415801D01*
X391062Y415801D01*
X391082Y415804D01*
X391101Y415802D01*
X391203Y415824D01*
X391305Y415841D01*
X391322Y415850D01*
X391342Y415854D01*
X391431Y415907D01*
X391522Y415956D01*
X391536Y415970D01*
X391553Y415980D01*
X391620Y416059D01*
X391691Y416134D01*
X391700Y416152D01*
X391713Y416167D01*
X391752Y416263D01*
X391795Y416357D01*
X391797Y416377D01*
X391805Y416395D01*
X391823Y416562D01*
X391823Y426341D01*
X397000Y426341D01*
X397020Y426344D01*
X397039Y426342D01*
X397141Y426364D01*
X397243Y426380D01*
X397260Y426390D01*
X397280Y426394D01*
X397369Y426447D01*
X397460Y426496D01*
X397474Y426510D01*
X397491Y426520D01*
X397558Y426599D01*
X397630Y426674D01*
X397638Y426692D01*
X397651Y426707D01*
X397690Y426803D01*
X397733Y426897D01*
X397735Y426917D01*
X397743Y426935D01*
X397761Y427102D01*
X397761Y434000D01*
X397747Y434090D01*
X397739Y434181D01*
X397727Y434211D01*
X397722Y434243D01*
X397679Y434323D01*
X397643Y434407D01*
X397617Y434439D01*
X397606Y434460D01*
X397583Y434482D01*
X397538Y434538D01*
X354840Y477236D01*
X354766Y477289D01*
X354697Y477349D01*
X354667Y477361D01*
X354641Y477380D01*
X354554Y477407D01*
X354469Y477441D01*
X354428Y477445D01*
X354405Y477452D01*
X354373Y477451D01*
X354302Y477459D01*
X11802Y477459D01*
X11782Y477456D01*
X11763Y477458D01*
X11661Y477436D01*
X11559Y477420D01*
X11542Y477410D01*
X11522Y477406D01*
X11433Y477353D01*
X11342Y477304D01*
X11328Y477290D01*
X11311Y477280D01*
X11244Y477201D01*
X11172Y477126D01*
X11164Y477108D01*
X11151Y477093D01*
X11112Y476997D01*
X11069Y476903D01*
X11067Y476883D01*
X11059Y476865D01*
X11041Y476698D01*
X11041Y72832D01*
X11056Y72738D01*
X11065Y72643D01*
X11076Y72617D01*
X11080Y72590D01*
X11125Y72506D01*
X11163Y72418D01*
X11182Y72397D01*
X11196Y72372D01*
X11265Y72307D01*
X11329Y72236D01*
X11353Y72222D01*
X11374Y72203D01*
X11460Y72163D01*
X11544Y72116D01*
X11571Y72111D01*
X11597Y72099D01*
X11692Y72089D01*
X11785Y72071D01*
X11813Y72075D01*
X11841Y72072D01*
X11935Y72092D01*
X12029Y72106D01*
X12061Y72120D01*
X12082Y72124D01*
X12110Y72141D01*
X12183Y72173D01*
X12519Y72368D01*
X13166Y72541D01*
X18977Y72541D01*
X18977Y70000D01*
X18980Y69980D01*
X18978Y69961D01*
X19000Y69859D01*
X19017Y69757D01*
X19026Y69740D01*
X19030Y69720D01*
X19083Y69631D01*
X19132Y69540D01*
X19146Y69526D01*
X19156Y69509D01*
X19235Y69442D01*
X19310Y69371D01*
X19328Y69362D01*
X19343Y69349D01*
X19439Y69310D01*
X19533Y69267D01*
X19553Y69265D01*
X19571Y69257D01*
X19738Y69239D01*
X21262Y69239D01*
X21282Y69242D01*
G37*
%LPC*%
G36*
X238368Y440975D02*
X238368Y440975D01*
X237475Y441868D01*
X237475Y448952D01*
X237472Y448972D01*
X237474Y448991D01*
X237452Y449093D01*
X237436Y449195D01*
X237426Y449212D01*
X237422Y449232D01*
X237369Y449321D01*
X237320Y449412D01*
X237306Y449426D01*
X237296Y449443D01*
X237217Y449510D01*
X237142Y449582D01*
X237124Y449590D01*
X237109Y449603D01*
X237013Y449642D01*
X236919Y449685D01*
X236899Y449687D01*
X236881Y449695D01*
X236714Y449713D01*
X234815Y449713D01*
X234725Y449699D01*
X234634Y449691D01*
X234604Y449679D01*
X234572Y449674D01*
X234492Y449631D01*
X234408Y449595D01*
X234376Y449569D01*
X234355Y449558D01*
X234333Y449535D01*
X234277Y449490D01*
X231988Y447201D01*
X228012Y447201D01*
X225201Y450012D01*
X225201Y453988D01*
X228012Y456799D01*
X231988Y456799D01*
X234277Y454510D01*
X234351Y454457D01*
X234420Y454397D01*
X234450Y454385D01*
X234476Y454366D01*
X234563Y454339D01*
X234648Y454305D01*
X234689Y454301D01*
X234712Y454294D01*
X234744Y454295D01*
X234815Y454287D01*
X236714Y454287D01*
X236734Y454290D01*
X236753Y454288D01*
X236855Y454310D01*
X236957Y454326D01*
X236974Y454336D01*
X236994Y454340D01*
X237083Y454393D01*
X237174Y454442D01*
X237188Y454456D01*
X237205Y454466D01*
X237272Y454545D01*
X237344Y454620D01*
X237352Y454638D01*
X237365Y454653D01*
X237404Y454749D01*
X237447Y454843D01*
X237449Y454863D01*
X237457Y454881D01*
X237475Y455048D01*
X237475Y458132D01*
X238368Y459025D01*
X252632Y459025D01*
X253525Y458132D01*
X253525Y441868D01*
X252632Y440975D01*
X238368Y440975D01*
G37*
%LPD*%
%LPC*%
G36*
X53166Y230959D02*
X53166Y230959D01*
X52519Y231132D01*
X51940Y231467D01*
X51467Y231940D01*
X51132Y232519D01*
X50959Y233166D01*
X50959Y237977D01*
X61977Y237977D01*
X61977Y230959D01*
X53166Y230959D01*
G37*
%LPD*%
%LPC*%
G36*
X381259Y417323D02*
X381259Y417323D01*
X381259Y424134D01*
X381432Y424781D01*
X381767Y425360D01*
X382240Y425833D01*
X382819Y426168D01*
X383466Y426341D01*
X388777Y426341D01*
X388777Y417323D01*
X381259Y417323D01*
G37*
%LPD*%
%LPC*%
G36*
X383466Y405259D02*
X383466Y405259D01*
X382819Y405432D01*
X382240Y405767D01*
X381767Y406240D01*
X381432Y406819D01*
X381259Y407466D01*
X381259Y414277D01*
X388777Y414277D01*
X388777Y405259D01*
X383466Y405259D01*
G37*
%LPD*%
%LPC*%
G36*
X266023Y451523D02*
X266023Y451523D01*
X266023Y460041D01*
X271334Y460041D01*
X271981Y459868D01*
X272560Y459533D01*
X273033Y459060D01*
X273368Y458481D01*
X273541Y457834D01*
X273541Y451523D01*
X266023Y451523D01*
G37*
%LPD*%
%LPC*%
G36*
X266023Y439959D02*
X266023Y439959D01*
X266023Y448477D01*
X273541Y448477D01*
X273541Y442166D01*
X273368Y441519D01*
X273033Y440940D01*
X272560Y440467D01*
X271981Y440132D01*
X271334Y439959D01*
X266023Y439959D01*
G37*
%LPD*%
%LPC*%
G36*
X255459Y451523D02*
X255459Y451523D01*
X255459Y457834D01*
X255632Y458481D01*
X255967Y459060D01*
X256440Y459533D01*
X257019Y459868D01*
X257666Y460041D01*
X262977Y460041D01*
X262977Y451523D01*
X255459Y451523D01*
G37*
%LPD*%
%LPC*%
G36*
X257666Y439959D02*
X257666Y439959D01*
X257019Y440132D01*
X256440Y440467D01*
X255967Y440940D01*
X255632Y441519D01*
X255459Y442166D01*
X255459Y448477D01*
X262977Y448477D01*
X262977Y439959D01*
X257666Y439959D01*
G37*
%LPD*%
%LPC*%
G36*
X264499Y449999D02*
X264499Y449999D01*
X264499Y450001D01*
X264501Y450001D01*
X264501Y449999D01*
X264499Y449999D01*
G37*
%LPD*%
D10*
X179500Y239500D03*
D11*
X179500Y255400D03*
X179500Y268300D03*
X179500Y281200D03*
X179500Y294100D03*
X179500Y307000D03*
X179500Y319900D03*
X179500Y332800D03*
X179500Y345700D03*
X179500Y358600D03*
X179500Y371500D03*
D10*
X179500Y387400D03*
X63500Y239500D03*
D11*
X63500Y255400D03*
X63500Y268300D03*
X63500Y281200D03*
X63500Y294100D03*
X63500Y307000D03*
X63500Y319900D03*
X63500Y332800D03*
X63500Y345700D03*
X63500Y358600D03*
X63500Y371500D03*
D10*
X63500Y387400D03*
D12*
X20500Y40000D03*
D13*
X37500Y40000D03*
X67500Y40000D03*
X82500Y40000D03*
X97500Y40000D03*
X112500Y40000D03*
X127500Y40000D03*
X142500Y40000D03*
X157500Y40000D03*
X172500Y40000D03*
X187500Y40000D03*
X202500Y40000D03*
X217500Y40000D03*
X232500Y40000D03*
X247500Y40000D03*
X262500Y40000D03*
X277500Y40000D03*
X292500Y40000D03*
X307500Y40000D03*
X322500Y40000D03*
X52500Y40000D03*
X337500Y40000D03*
X352500Y40000D03*
X367500Y40000D03*
X382500Y40000D03*
X397500Y40000D03*
X412500Y40000D03*
X427500Y40000D03*
X442500Y40000D03*
X457500Y40000D03*
X472500Y40000D03*
D12*
X489500Y40000D03*
D14*
X409300Y415800D03*
X390300Y415800D03*
D15*
X381000Y372000D03*
X368300Y372000D03*
X355600Y372000D03*
X342900Y372000D03*
D16*
X324000Y341100D03*
X324000Y328400D03*
X324000Y315700D03*
X324000Y303000D03*
X324000Y290300D03*
X324000Y277600D03*
X324000Y264900D03*
X324000Y353800D03*
X324000Y252200D03*
D15*
X342900Y234000D03*
X355600Y234000D03*
X368300Y234000D03*
X381000Y234000D03*
X393700Y234000D03*
X406400Y234000D03*
X419100Y234000D03*
D16*
X438000Y252200D03*
X438000Y264900D03*
X438000Y277600D03*
X438000Y290300D03*
X438000Y303000D03*
X438000Y315700D03*
X438000Y328400D03*
X438000Y341100D03*
X438000Y353800D03*
D15*
X419100Y372000D03*
X406400Y372000D03*
X393700Y372000D03*
D17*
X264500Y450000D03*
X245500Y450000D03*
D18*
X111380Y372000D03*
X126620Y372000D03*
D19*
X120778Y372000D02*
X117222Y372000D01*
D18*
X111380Y358000D03*
X126620Y358000D03*
D19*
X120778Y358000D02*
X117222Y358000D01*
D18*
X111380Y344000D03*
X126620Y344000D03*
D19*
X120778Y344000D02*
X117222Y344000D01*
D20*
X143380Y308620D03*
X143380Y293380D03*
D19*
X143380Y299222D02*
X143380Y302778D01*
D20*
X128380Y308620D03*
X128380Y293380D03*
D19*
X128380Y299222D02*
X128380Y302778D01*
X126620Y358000D02*
X126620Y372000D01*
X179100Y387000D02*
X179500Y387400D01*
D21*
X488000Y87000D03*
D19*
X126620Y344000D02*
X126620Y358000D01*
X230000Y451733D02*
X230000Y452000D01*
D21*
X230000Y452000D03*
D19*
X243500Y452000D01*
X245500Y450000D01*
X368300Y234000D02*
X368300Y185000D01*
D21*
X368300Y185000D03*
D19*
X488000Y41500D02*
X489500Y40000D01*
X488000Y41500D02*
X488000Y87000D01*
X126620Y372000D02*
X126620Y400000D01*
X127000Y400000D01*
D21*
X127000Y400000D03*
D19*
X179100Y387000D02*
X179500Y387400D01*
X179500Y402000D01*
D21*
X179500Y402000D03*
D19*
X323900Y265000D02*
X324000Y264900D01*
X323900Y265000D02*
X222000Y265000D01*
X219000Y262000D01*
X164000Y262000D01*
X97500Y195500D01*
X97500Y40000D01*
X112500Y40000D02*
X112500Y126500D01*
X232000Y246000D02*
X280000Y246000D01*
X232000Y246000D02*
X112500Y126500D01*
D21*
X280000Y246000D03*
X292000Y277000D03*
D19*
X292600Y277600D01*
X324000Y277600D01*
D21*
X253000Y240000D03*
D19*
X128214Y40714D02*
X127500Y40000D01*
X128214Y40714D02*
X128214Y133003D01*
X235211Y240000D02*
X253000Y240000D01*
X235211Y240000D02*
X128214Y133003D01*
D21*
X283000Y290000D03*
D19*
X283300Y290300D01*
X324000Y290300D01*
X242000Y230000D02*
X235000Y230000D01*
D21*
X242000Y230000D03*
X285000Y309000D03*
D19*
X291000Y303000D02*
X324000Y303000D01*
X142500Y137500D02*
X142500Y40000D01*
X142500Y137500D02*
X235000Y230000D01*
X291000Y303000D02*
X285000Y309000D01*
X157500Y144500D02*
X157500Y40000D01*
X157500Y144500D02*
X229000Y216000D01*
D21*
X229000Y216000D03*
X273000Y316000D03*
D19*
X323140Y316560D02*
X324000Y315700D01*
X323140Y316560D02*
X322580Y316000D01*
X287863Y316000D02*
X273000Y316000D01*
X287863Y316000D02*
X322580Y316000D01*
X82500Y182000D02*
X82500Y40000D01*
D21*
X82500Y182000D03*
X82500Y255000D03*
D19*
X63900Y255000D01*
X63500Y255400D01*
X52500Y201500D02*
X52500Y40000D01*
X63200Y268000D02*
X63500Y268300D01*
X90000Y239000D02*
X52500Y201500D01*
X90000Y239000D02*
X90000Y261000D01*
X83000Y268000D01*
X63200Y268000D01*
X131200Y281200D02*
X143380Y293380D01*
X131200Y281200D02*
X63500Y281200D01*
X322500Y101500D02*
X322500Y40000D01*
X322500Y101500D02*
X328000Y107000D01*
D21*
X328000Y107000D03*
X410000Y265000D03*
D19*
X410100Y264900D02*
X438000Y264900D01*
X410100Y264900D02*
X410000Y265000D01*
X131200Y281000D02*
X131200Y281200D01*
X131200Y281000D02*
X131000Y281000D01*
D21*
X131000Y281000D03*
D19*
X128380Y293380D02*
X114000Y293380D01*
X64220Y293380D01*
X63500Y294100D01*
X307500Y91500D02*
X307500Y40000D01*
X307500Y91500D02*
X307000Y92000D01*
D21*
X307000Y92000D03*
X114000Y293380D03*
D19*
X292000Y40500D02*
X292500Y40000D01*
X292000Y40500D02*
X292000Y82000D01*
D21*
X292000Y82000D03*
X102000Y307000D03*
D19*
X63500Y307000D01*
X431100Y341100D02*
X438000Y341100D01*
X386000Y334000D02*
X384000Y332000D01*
D21*
X384000Y332000D03*
D19*
X424000Y334000D02*
X431100Y341100D01*
X424000Y334000D02*
X386000Y334000D01*
D21*
X320000Y114000D03*
D19*
X292000Y86000D01*
X292000Y82000D01*
X116000Y319900D02*
X63500Y319900D01*
X116000Y319900D02*
X117100Y319900D01*
D21*
X116000Y319900D03*
D19*
X117100Y319900D02*
X128380Y308620D01*
X422667Y343000D02*
X433467Y353800D01*
X422667Y343000D02*
X411000Y343000D01*
X433467Y353800D02*
X438000Y353800D01*
X262286Y386286D02*
X255000Y379000D01*
X255000Y378440D01*
D21*
X255000Y378440D03*
D19*
X262286Y386286D02*
X345847Y386286D01*
X349000Y357000D02*
X363000Y343000D01*
X411000Y343000D01*
X349000Y383133D02*
X345847Y386286D01*
X349000Y383133D02*
X349000Y357000D01*
X143380Y308620D02*
X119200Y332800D01*
X63500Y332800D01*
X352000Y391000D02*
X356000Y387000D01*
X356000Y367000D01*
X356000Y371600D01*
X355600Y372000D01*
X352000Y391000D02*
X226000Y391000D01*
X143380Y309380D02*
X143380Y308620D01*
X150000Y316000D02*
X150000Y372000D01*
X157000Y379000D01*
X214000Y379000D02*
X226000Y391000D01*
X150000Y316000D02*
X143380Y309380D01*
X157000Y379000D02*
X214000Y379000D01*
X111380Y344000D02*
X89000Y344000D01*
X65200Y344000D01*
X63500Y345700D01*
X109000Y344000D02*
X116000Y337000D01*
X109000Y344000D02*
X89000Y344000D01*
X172000Y423000D02*
X330000Y423000D01*
X368000Y372300D02*
X368300Y372000D01*
X172000Y423000D02*
X141000Y392000D01*
X368000Y372300D02*
X368300Y372000D01*
X368000Y372300D02*
X368000Y385000D01*
X134000Y337000D02*
X116000Y337000D01*
X134000Y337000D02*
X141000Y344000D01*
X141000Y392000D01*
X330000Y423000D02*
X368000Y385000D01*
X337500Y211363D02*
X337500Y40000D01*
X337500Y211363D02*
X324000Y224863D01*
X324000Y252200D01*
X183000Y243000D02*
X179500Y239500D01*
X222000Y243000D02*
X231200Y252200D01*
X324000Y252200D01*
X222000Y243000D02*
X183000Y243000D01*
X352500Y129500D02*
X352500Y40000D01*
X353000Y129000D02*
X352500Y129500D01*
X353000Y129000D02*
X342900Y139100D01*
X342900Y230000D01*
X342900Y234000D01*
X180100Y256000D02*
X179500Y255400D01*
X221689Y256000D02*
X224175Y258486D01*
X334947Y258486D01*
X221689Y256000D02*
X180100Y256000D01*
X334947Y258486D02*
X342900Y250533D01*
X342900Y230000D01*
X355600Y146400D02*
X368000Y134000D01*
X355600Y189263D02*
X355600Y234000D01*
X355600Y189263D02*
X355600Y146400D01*
X368000Y134000D02*
X368000Y40500D01*
X367500Y40000D01*
X215679Y268300D02*
X179500Y268300D01*
X215679Y268300D02*
X218565Y271186D01*
X337814Y271186D01*
X356000Y253000D01*
X355600Y252600D01*
X355600Y234000D01*
X381000Y234000D02*
X381000Y233000D01*
X381000Y41500D01*
X382500Y40000D01*
X382000Y253000D02*
X351114Y283886D01*
X182186Y283886D01*
X179500Y281200D01*
X382000Y253000D02*
X382000Y234000D01*
X381000Y233000D01*
X397500Y132500D02*
X397500Y40000D01*
X397500Y132500D02*
X393000Y137000D01*
X393000Y233300D01*
X393700Y234000D01*
X216100Y294100D02*
X179500Y294100D01*
X218560Y296560D02*
X350440Y296560D01*
X218560Y296560D02*
X216100Y294100D01*
X350440Y296560D02*
X393000Y254000D01*
X393000Y233300D01*
X215600Y358600D02*
X179500Y358600D01*
X459500Y368500D02*
X459500Y42000D01*
X457500Y40000D01*
X459500Y368500D02*
X437000Y391000D01*
D21*
X437000Y391000D03*
X215600Y358600D03*
D19*
X181000Y371500D02*
X179500Y371500D01*
X325500Y371500D02*
X407000Y290000D01*
X437700Y290000D01*
X438000Y290300D01*
X161000Y332000D02*
X161000Y370000D01*
X162500Y371500D01*
X181000Y371500D01*
X179500Y371500D02*
X325500Y371500D01*
X161000Y332000D02*
X161000Y286000D01*
X67500Y192500D01*
X67500Y40000D01*
X172500Y40000D02*
X172500Y150500D01*
X220000Y198000D02*
X221000Y198000D01*
X220000Y198000D02*
X172500Y150500D01*
D21*
X221000Y198000D03*
X262000Y328000D03*
D19*
X323600Y328000D01*
X324000Y328400D01*
X187500Y153500D02*
X187500Y40000D01*
X187500Y153500D02*
X209000Y175000D01*
D21*
X209000Y175000D03*
X260000Y341000D03*
D19*
X260100Y341100D01*
X324000Y341100D01*
D21*
X253000Y352000D03*
D19*
X322200Y352000D01*
X324000Y353800D01*
D21*
X201000Y154000D03*
D19*
X201000Y41500D02*
X202500Y40000D01*
X201000Y41500D02*
X201000Y154000D01*
X217500Y72500D02*
X217500Y40000D01*
D21*
X303000Y191000D03*
D19*
X264487Y109698D02*
X254698Y109698D01*
X264487Y109698D02*
X303000Y148211D01*
X254698Y109698D02*
X217500Y72500D01*
X303000Y148211D02*
X303000Y191000D01*
D21*
X410000Y328000D03*
D19*
X437600Y328000D01*
X438000Y328400D01*
X232500Y70500D02*
X232500Y40000D01*
X232500Y70500D02*
X310000Y148000D01*
X310000Y170000D01*
D21*
X310000Y170000D03*
X410000Y312000D03*
D19*
X413700Y315700D01*
X438000Y315700D01*
X247500Y73500D02*
X247500Y40000D01*
X322000Y148000D02*
X322000Y149000D01*
D21*
X322000Y149000D03*
X410000Y278000D03*
D19*
X322000Y148000D02*
X247500Y73500D01*
X410000Y278000D02*
X437600Y278000D01*
X438000Y277600D01*
X262500Y80500D02*
X262500Y40000D01*
X262500Y80500D02*
X316000Y134000D01*
D21*
X316000Y134000D03*
X410000Y297000D03*
D19*
X416000Y303000D01*
X438000Y303000D01*
X277500Y84500D02*
X277500Y40000D01*
X332560Y139560D02*
X332560Y206440D01*
X332560Y139560D02*
X277500Y84500D01*
X332560Y206440D02*
X299000Y240000D01*
D21*
X299000Y240000D03*
X299000Y378000D03*
D19*
X336900Y378000D02*
X342900Y372000D01*
X336900Y378000D02*
X299000Y378000D01*
X406400Y234000D02*
X406400Y141600D01*
X412500Y135500D02*
X412500Y40000D01*
X412500Y135500D02*
X406400Y141600D01*
X419100Y146900D02*
X419100Y234000D01*
X427500Y138500D02*
X427500Y40000D01*
X427500Y138500D02*
X419100Y146900D01*
X442500Y247700D02*
X442500Y40000D01*
X442500Y247700D02*
X438000Y252200D01*
X473000Y40500D02*
X472500Y40000D01*
X473000Y40500D02*
X473000Y386000D01*
X443200Y415800D01*
X412000Y415800D01*
X409300Y415800D01*
X406400Y410200D02*
X406400Y372000D01*
X406400Y410200D02*
X412000Y415800D01*
X111380Y358000D02*
X89000Y358000D01*
X64100Y358000D02*
X63500Y358600D01*
X64100Y358000D02*
X89000Y358000D01*
X419100Y357100D02*
X419100Y372000D01*
X63500Y358600D02*
X51400Y358600D01*
X49000Y361000D01*
X49000Y394000D01*
X88000Y433000D01*
X339000Y433000D02*
X387000Y385000D01*
X339000Y433000D02*
X88000Y433000D01*
X416000Y354000D02*
X419100Y357100D01*
X392000Y354000D02*
X387000Y359000D01*
X392000Y354000D02*
X416000Y354000D01*
X387000Y359000D02*
X387000Y385000D01*
X111380Y372000D02*
X93000Y372000D01*
X89000Y372000D01*
X83000Y372000D01*
X64000Y372000D01*
X63500Y371500D01*
X83000Y372000D02*
X139000Y428000D01*
X381000Y382000D02*
X381000Y372000D01*
X381000Y382000D02*
X335000Y428000D01*
X139000Y428000D01*
M02*
