G04 EAGLE Gerber RS-274X export*
G75*
%MOMM*%
%FSLAX34Y34*%
%LPD*%
%INBottom Copper*%
%IPPOS*%
%AMOC8*
5,1,8,0,0,1.08239X$1,22.5*%
G01*
%ADD10C,0.654800*%
%ADD11C,0.152400*%

G36*
X498218Y2544D02*
X498218Y2544D01*
X498237Y2542D01*
X498339Y2564D01*
X498441Y2580D01*
X498458Y2590D01*
X498478Y2594D01*
X498567Y2647D01*
X498658Y2696D01*
X498672Y2710D01*
X498689Y2720D01*
X498756Y2799D01*
X498828Y2874D01*
X498836Y2892D01*
X498849Y2907D01*
X498888Y3003D01*
X498931Y3097D01*
X498933Y3117D01*
X498941Y3135D01*
X498959Y3302D01*
X498959Y476698D01*
X498956Y476718D01*
X498958Y476737D01*
X498936Y476839D01*
X498920Y476941D01*
X498910Y476958D01*
X498906Y476978D01*
X498853Y477067D01*
X498804Y477158D01*
X498790Y477172D01*
X498780Y477189D01*
X498701Y477256D01*
X498626Y477328D01*
X498608Y477336D01*
X498593Y477349D01*
X498497Y477388D01*
X498403Y477431D01*
X498383Y477433D01*
X498365Y477441D01*
X498198Y477459D01*
X11802Y477459D01*
X11782Y477456D01*
X11763Y477458D01*
X11661Y477436D01*
X11559Y477420D01*
X11542Y477410D01*
X11522Y477406D01*
X11433Y477353D01*
X11342Y477304D01*
X11328Y477290D01*
X11311Y477280D01*
X11244Y477201D01*
X11172Y477126D01*
X11164Y477108D01*
X11151Y477093D01*
X11112Y476997D01*
X11069Y476903D01*
X11067Y476883D01*
X11059Y476865D01*
X11041Y476698D01*
X11041Y3302D01*
X11044Y3282D01*
X11042Y3263D01*
X11064Y3161D01*
X11080Y3059D01*
X11090Y3042D01*
X11094Y3022D01*
X11147Y2933D01*
X11196Y2842D01*
X11210Y2828D01*
X11220Y2811D01*
X11299Y2744D01*
X11374Y2672D01*
X11392Y2664D01*
X11407Y2651D01*
X11503Y2612D01*
X11597Y2569D01*
X11617Y2567D01*
X11635Y2559D01*
X11802Y2541D01*
X498198Y2541D01*
X498218Y2544D01*
G37*
%LPC*%
G36*
X326012Y102201D02*
X326012Y102201D01*
X323723Y104490D01*
X323649Y104543D01*
X323580Y104603D01*
X323550Y104615D01*
X323524Y104634D01*
X323437Y104661D01*
X323352Y104695D01*
X323311Y104699D01*
X323288Y104706D01*
X323256Y104705D01*
X323185Y104713D01*
X207053Y104713D01*
X128713Y183053D01*
X128713Y276185D01*
X128699Y276275D01*
X128691Y276366D01*
X128679Y276396D01*
X128674Y276428D01*
X128631Y276508D01*
X128595Y276592D01*
X128569Y276624D01*
X128558Y276645D01*
X128535Y276667D01*
X128490Y276723D01*
X126201Y279012D01*
X126201Y282988D01*
X129012Y285799D01*
X132988Y285799D01*
X135799Y282988D01*
X135799Y279012D01*
X133510Y276723D01*
X133457Y276649D01*
X133397Y276580D01*
X133385Y276550D01*
X133366Y276524D01*
X133339Y276437D01*
X133305Y276352D01*
X133301Y276311D01*
X133294Y276288D01*
X133295Y276256D01*
X133287Y276185D01*
X133287Y185263D01*
X133301Y185172D01*
X133309Y185082D01*
X133321Y185052D01*
X133326Y185020D01*
X133369Y184939D01*
X133405Y184855D01*
X133431Y184823D01*
X133442Y184802D01*
X133465Y184780D01*
X133484Y184756D01*
X133488Y184750D01*
X133492Y184746D01*
X133510Y184724D01*
X208724Y109510D01*
X208798Y109457D01*
X208868Y109397D01*
X208898Y109385D01*
X208924Y109366D01*
X209011Y109339D01*
X209096Y109305D01*
X209137Y109301D01*
X209159Y109294D01*
X209191Y109295D01*
X209263Y109287D01*
X316089Y109287D01*
X316160Y109298D01*
X316231Y109300D01*
X316280Y109318D01*
X316332Y109326D01*
X316395Y109360D01*
X316462Y109385D01*
X316503Y109417D01*
X316549Y109442D01*
X316599Y109494D01*
X316655Y109538D01*
X316683Y109582D01*
X316719Y109620D01*
X316749Y109685D01*
X316788Y109745D01*
X316800Y109796D01*
X316822Y109843D01*
X316830Y109914D01*
X316848Y109984D01*
X316844Y110036D01*
X316849Y110087D01*
X316834Y110158D01*
X316828Y110229D01*
X316808Y110277D01*
X316797Y110328D01*
X316760Y110389D01*
X316732Y110455D01*
X316687Y110511D01*
X316671Y110539D01*
X316653Y110554D01*
X316627Y110586D01*
X315201Y112012D01*
X315201Y115249D01*
X315187Y115340D01*
X315179Y115430D01*
X315167Y115460D01*
X315162Y115492D01*
X315119Y115573D01*
X315083Y115657D01*
X315057Y115689D01*
X315046Y115710D01*
X315023Y115732D01*
X314978Y115788D01*
X294515Y136251D01*
X294515Y147349D01*
X294511Y147373D01*
X294514Y147397D01*
X294492Y147494D01*
X294476Y147592D01*
X294464Y147613D01*
X294459Y147636D01*
X294407Y147721D01*
X294360Y147809D01*
X294343Y147826D01*
X294330Y147846D01*
X294254Y147910D01*
X294182Y147978D01*
X294160Y147989D01*
X294142Y148004D01*
X294049Y148040D01*
X293959Y148082D01*
X293935Y148085D01*
X293913Y148094D01*
X293813Y148098D01*
X293715Y148109D01*
X293691Y148104D01*
X293667Y148105D01*
X293571Y148078D01*
X293474Y148057D01*
X293454Y148045D01*
X293430Y148038D01*
X293348Y147982D01*
X293263Y147931D01*
X293247Y147912D01*
X293228Y147899D01*
X293168Y147819D01*
X293103Y147744D01*
X293094Y147721D01*
X293080Y147702D01*
X293019Y147546D01*
X291380Y141431D01*
X286240Y132528D01*
X278972Y125260D01*
X270069Y120120D01*
X260140Y117459D01*
X249860Y117459D01*
X239931Y120120D01*
X231028Y125260D01*
X223760Y132528D01*
X218620Y141431D01*
X215959Y151360D01*
X215959Y161640D01*
X218620Y171569D01*
X223760Y180472D01*
X231028Y187740D01*
X239931Y192880D01*
X249860Y195541D01*
X260140Y195541D01*
X270069Y192880D01*
X278972Y187740D01*
X286240Y180472D01*
X291380Y171569D01*
X293019Y165454D01*
X293029Y165432D01*
X293033Y165408D01*
X293079Y165321D01*
X293120Y165230D01*
X293136Y165212D01*
X293148Y165191D01*
X293220Y165122D01*
X293287Y165050D01*
X293308Y165038D01*
X293326Y165022D01*
X293416Y164980D01*
X293503Y164932D01*
X293527Y164928D01*
X293549Y164918D01*
X293648Y164907D01*
X293746Y164890D01*
X293770Y164893D01*
X293793Y164891D01*
X293891Y164912D01*
X293989Y164927D01*
X294010Y164938D01*
X294034Y164943D01*
X294119Y164994D01*
X294208Y165040D01*
X294224Y165057D01*
X294245Y165069D01*
X294310Y165145D01*
X294379Y165216D01*
X294389Y165238D01*
X294405Y165256D01*
X294442Y165349D01*
X294485Y165438D01*
X294488Y165462D01*
X294497Y165484D01*
X294515Y165651D01*
X294515Y224749D01*
X381490Y311724D01*
X381543Y311798D01*
X381603Y311868D01*
X381615Y311898D01*
X381634Y311924D01*
X381661Y312011D01*
X381695Y312096D01*
X381699Y312137D01*
X381706Y312159D01*
X381705Y312191D01*
X381713Y312263D01*
X381713Y327185D01*
X381699Y327275D01*
X381691Y327366D01*
X381679Y327396D01*
X381674Y327428D01*
X381631Y327508D01*
X381595Y327592D01*
X381569Y327624D01*
X381558Y327645D01*
X381535Y327667D01*
X381490Y327723D01*
X379201Y330012D01*
X379201Y333988D01*
X382012Y336799D01*
X385988Y336799D01*
X388799Y333988D01*
X388799Y330012D01*
X386510Y327723D01*
X386457Y327649D01*
X386397Y327580D01*
X386385Y327550D01*
X386366Y327524D01*
X386339Y327437D01*
X386305Y327352D01*
X386301Y327311D01*
X386294Y327288D01*
X386295Y327256D01*
X386287Y327185D01*
X386287Y311358D01*
X386298Y311288D01*
X386300Y311216D01*
X386318Y311167D01*
X386326Y311116D01*
X386360Y311052D01*
X386385Y310985D01*
X386417Y310944D01*
X386442Y310898D01*
X386494Y310849D01*
X386538Y310793D01*
X386582Y310765D01*
X386620Y310729D01*
X386685Y310699D01*
X386745Y310660D01*
X386796Y310647D01*
X386843Y310625D01*
X386914Y310617D01*
X386984Y310600D01*
X387036Y310604D01*
X387087Y310598D01*
X387158Y310613D01*
X387229Y310619D01*
X387277Y310639D01*
X387328Y310650D01*
X387389Y310687D01*
X387455Y310715D01*
X387511Y310760D01*
X387539Y310777D01*
X387554Y310794D01*
X387586Y310820D01*
X404978Y328212D01*
X405031Y328286D01*
X405091Y328356D01*
X405103Y328386D01*
X405122Y328412D01*
X405149Y328499D01*
X405183Y328584D01*
X405187Y328625D01*
X405194Y328647D01*
X405193Y328679D01*
X405201Y328751D01*
X405201Y329988D01*
X408012Y332799D01*
X411988Y332799D01*
X414799Y329988D01*
X414799Y326012D01*
X411988Y323201D01*
X408012Y323201D01*
X407762Y323452D01*
X407746Y323463D01*
X407733Y323479D01*
X407646Y323535D01*
X407562Y323595D01*
X407543Y323601D01*
X407526Y323612D01*
X407426Y323637D01*
X407327Y323667D01*
X407307Y323667D01*
X407288Y323672D01*
X407185Y323664D01*
X407081Y323661D01*
X407063Y323654D01*
X407043Y323653D01*
X406948Y323612D01*
X406850Y323577D01*
X406835Y323564D01*
X406816Y323556D01*
X406685Y323452D01*
X398820Y315586D01*
X398778Y315528D01*
X398729Y315476D01*
X398707Y315429D01*
X398677Y315387D01*
X398656Y315318D01*
X398625Y315253D01*
X398620Y315201D01*
X398604Y315151D01*
X398606Y315080D01*
X398598Y315009D01*
X398609Y314958D01*
X398611Y314906D01*
X398635Y314838D01*
X398650Y314768D01*
X398677Y314724D01*
X398695Y314675D01*
X398740Y314619D01*
X398777Y314557D01*
X398816Y314523D01*
X398849Y314483D01*
X398909Y314444D01*
X398964Y314397D01*
X399012Y314378D01*
X399056Y314350D01*
X399125Y314332D01*
X399192Y314305D01*
X399263Y314297D01*
X399294Y314289D01*
X399318Y314291D01*
X399358Y314287D01*
X405185Y314287D01*
X405275Y314301D01*
X405366Y314309D01*
X405396Y314321D01*
X405428Y314326D01*
X405508Y314369D01*
X405592Y314405D01*
X405624Y314431D01*
X405645Y314442D01*
X405667Y314465D01*
X405723Y314510D01*
X408012Y316799D01*
X411988Y316799D01*
X414799Y313988D01*
X414799Y310012D01*
X411988Y307201D01*
X408012Y307201D01*
X405723Y309490D01*
X405649Y309543D01*
X405580Y309603D01*
X405550Y309615D01*
X405524Y309634D01*
X405437Y309661D01*
X405352Y309695D01*
X405311Y309699D01*
X405288Y309706D01*
X405256Y309705D01*
X405185Y309713D01*
X401263Y309713D01*
X401172Y309699D01*
X401082Y309691D01*
X401052Y309679D01*
X401020Y309674D01*
X400939Y309631D01*
X400855Y309595D01*
X400823Y309569D01*
X400802Y309558D01*
X400780Y309535D01*
X400724Y309490D01*
X391820Y300586D01*
X391778Y300528D01*
X391729Y300476D01*
X391707Y300429D01*
X391677Y300387D01*
X391656Y300318D01*
X391625Y300253D01*
X391620Y300201D01*
X391604Y300151D01*
X391606Y300080D01*
X391598Y300009D01*
X391609Y299958D01*
X391611Y299906D01*
X391635Y299838D01*
X391650Y299768D01*
X391677Y299723D01*
X391695Y299675D01*
X391740Y299619D01*
X391777Y299557D01*
X391816Y299523D01*
X391849Y299483D01*
X391909Y299444D01*
X391964Y299397D01*
X392012Y299378D01*
X392056Y299350D01*
X392125Y299332D01*
X392192Y299305D01*
X392263Y299297D01*
X392294Y299289D01*
X392318Y299291D01*
X392358Y299287D01*
X405185Y299287D01*
X405275Y299301D01*
X405366Y299309D01*
X405396Y299321D01*
X405428Y299326D01*
X405508Y299369D01*
X405592Y299405D01*
X405624Y299431D01*
X405645Y299442D01*
X405667Y299465D01*
X405723Y299510D01*
X408012Y301799D01*
X411988Y301799D01*
X414799Y298988D01*
X414799Y295012D01*
X411988Y292201D01*
X408012Y292201D01*
X405723Y294490D01*
X405649Y294543D01*
X405580Y294603D01*
X405550Y294615D01*
X405524Y294634D01*
X405437Y294661D01*
X405352Y294695D01*
X405311Y294699D01*
X405288Y294706D01*
X405256Y294705D01*
X405185Y294713D01*
X394263Y294713D01*
X394172Y294699D01*
X394082Y294691D01*
X394052Y294679D01*
X394020Y294674D01*
X393939Y294631D01*
X393855Y294595D01*
X393823Y294569D01*
X393802Y294558D01*
X393780Y294535D01*
X393724Y294490D01*
X380820Y281586D01*
X380778Y281528D01*
X380729Y281476D01*
X380707Y281429D01*
X380677Y281387D01*
X380656Y281318D01*
X380625Y281253D01*
X380620Y281201D01*
X380604Y281151D01*
X380606Y281080D01*
X380598Y281009D01*
X380609Y280958D01*
X380611Y280906D01*
X380635Y280838D01*
X380650Y280768D01*
X380677Y280723D01*
X380695Y280675D01*
X380740Y280619D01*
X380777Y280557D01*
X380816Y280523D01*
X380849Y280483D01*
X380909Y280444D01*
X380964Y280397D01*
X381012Y280378D01*
X381056Y280350D01*
X381125Y280332D01*
X381192Y280305D01*
X381263Y280297D01*
X381294Y280289D01*
X381318Y280291D01*
X381358Y280287D01*
X405185Y280287D01*
X405275Y280301D01*
X405366Y280309D01*
X405396Y280321D01*
X405428Y280326D01*
X405508Y280369D01*
X405592Y280405D01*
X405624Y280431D01*
X405645Y280442D01*
X405667Y280465D01*
X405723Y280510D01*
X408012Y282799D01*
X411988Y282799D01*
X414799Y279988D01*
X414799Y276012D01*
X411988Y273201D01*
X408012Y273201D01*
X405723Y275490D01*
X405649Y275543D01*
X405580Y275603D01*
X405550Y275615D01*
X405524Y275634D01*
X405437Y275661D01*
X405352Y275695D01*
X405311Y275699D01*
X405288Y275706D01*
X405256Y275705D01*
X405185Y275713D01*
X383263Y275713D01*
X383172Y275699D01*
X383082Y275691D01*
X383052Y275679D01*
X383020Y275674D01*
X382939Y275631D01*
X382855Y275595D01*
X382823Y275569D01*
X382802Y275558D01*
X382780Y275535D01*
X382724Y275490D01*
X375820Y268586D01*
X375778Y268528D01*
X375729Y268476D01*
X375707Y268429D01*
X375677Y268387D01*
X375656Y268318D01*
X375625Y268253D01*
X375620Y268201D01*
X375604Y268151D01*
X375606Y268080D01*
X375598Y268009D01*
X375609Y267958D01*
X375611Y267906D01*
X375635Y267838D01*
X375650Y267768D01*
X375677Y267723D01*
X375695Y267675D01*
X375740Y267619D01*
X375777Y267557D01*
X375816Y267523D01*
X375849Y267483D01*
X375909Y267444D01*
X375964Y267397D01*
X376012Y267378D01*
X376056Y267350D01*
X376125Y267332D01*
X376192Y267305D01*
X376263Y267297D01*
X376294Y267289D01*
X376318Y267291D01*
X376358Y267287D01*
X405185Y267287D01*
X405275Y267301D01*
X405366Y267309D01*
X405396Y267321D01*
X405428Y267326D01*
X405508Y267369D01*
X405592Y267405D01*
X405624Y267431D01*
X405645Y267442D01*
X405667Y267465D01*
X405723Y267510D01*
X408012Y269799D01*
X411988Y269799D01*
X414799Y266988D01*
X414799Y263012D01*
X411988Y260201D01*
X408012Y260201D01*
X405723Y262490D01*
X405649Y262543D01*
X405580Y262603D01*
X405550Y262615D01*
X405524Y262634D01*
X405437Y262661D01*
X405352Y262695D01*
X405311Y262699D01*
X405288Y262706D01*
X405256Y262705D01*
X405185Y262713D01*
X378263Y262713D01*
X378172Y262699D01*
X378082Y262691D01*
X378052Y262679D01*
X378020Y262674D01*
X377939Y262631D01*
X377855Y262595D01*
X377823Y262569D01*
X377802Y262558D01*
X377780Y262535D01*
X377724Y262490D01*
X330510Y215276D01*
X330457Y215202D01*
X330397Y215132D01*
X330385Y215102D01*
X330366Y215076D01*
X330339Y214989D01*
X330305Y214904D01*
X330301Y214863D01*
X330294Y214841D01*
X330295Y214809D01*
X330287Y214737D01*
X330287Y111815D01*
X330301Y111725D01*
X330309Y111634D01*
X330321Y111604D01*
X330326Y111572D01*
X330369Y111492D01*
X330405Y111408D01*
X330431Y111376D01*
X330442Y111355D01*
X330465Y111333D01*
X330510Y111277D01*
X332799Y108988D01*
X332799Y105012D01*
X329988Y102201D01*
X326012Y102201D01*
G37*
%LPD*%
%LPC*%
G36*
X199012Y149201D02*
X199012Y149201D01*
X196201Y152012D01*
X196201Y155988D01*
X198490Y158277D01*
X198543Y158351D01*
X198603Y158420D01*
X198615Y158450D01*
X198634Y158476D01*
X198661Y158563D01*
X198695Y158648D01*
X198699Y158689D01*
X198706Y158712D01*
X198705Y158744D01*
X198713Y158815D01*
X198713Y300947D01*
X247978Y350212D01*
X248031Y350286D01*
X248091Y350356D01*
X248103Y350386D01*
X248122Y350412D01*
X248149Y350499D01*
X248183Y350584D01*
X248187Y350625D01*
X248194Y350647D01*
X248193Y350679D01*
X248201Y350751D01*
X248201Y353988D01*
X251012Y356799D01*
X254988Y356799D01*
X257799Y353988D01*
X257799Y350012D01*
X254988Y347201D01*
X251751Y347201D01*
X251660Y347187D01*
X251570Y347179D01*
X251540Y347167D01*
X251508Y347162D01*
X251427Y347119D01*
X251343Y347083D01*
X251311Y347057D01*
X251290Y347046D01*
X251268Y347023D01*
X251212Y346978D01*
X203510Y299276D01*
X203457Y299202D01*
X203397Y299132D01*
X203385Y299102D01*
X203366Y299076D01*
X203339Y298989D01*
X203305Y298904D01*
X203301Y298863D01*
X203294Y298841D01*
X203295Y298809D01*
X203287Y298737D01*
X203287Y177911D01*
X203298Y177840D01*
X203300Y177769D01*
X203318Y177720D01*
X203326Y177668D01*
X203360Y177605D01*
X203385Y177538D01*
X203417Y177497D01*
X203442Y177451D01*
X203494Y177401D01*
X203538Y177345D01*
X203582Y177317D01*
X203620Y177281D01*
X203685Y177251D01*
X203745Y177212D01*
X203796Y177200D01*
X203843Y177178D01*
X203914Y177170D01*
X203984Y177152D01*
X204036Y177156D01*
X204087Y177151D01*
X204158Y177166D01*
X204229Y177172D01*
X204277Y177192D01*
X204328Y177203D01*
X204389Y177240D01*
X204455Y177268D01*
X204511Y177313D01*
X204539Y177329D01*
X204554Y177347D01*
X204586Y177373D01*
X206490Y179277D01*
X206543Y179351D01*
X206603Y179420D01*
X206615Y179450D01*
X206634Y179476D01*
X206661Y179564D01*
X206695Y179648D01*
X206699Y179689D01*
X206706Y179712D01*
X206705Y179744D01*
X206713Y179815D01*
X206713Y290947D01*
X254978Y339212D01*
X255031Y339286D01*
X255091Y339356D01*
X255103Y339386D01*
X255122Y339412D01*
X255149Y339499D01*
X255183Y339584D01*
X255187Y339625D01*
X255194Y339647D01*
X255193Y339679D01*
X255201Y339751D01*
X255201Y342988D01*
X258012Y345799D01*
X261988Y345799D01*
X264799Y342988D01*
X264799Y339012D01*
X261988Y336201D01*
X258751Y336201D01*
X258660Y336187D01*
X258570Y336179D01*
X258540Y336167D01*
X258508Y336162D01*
X258427Y336119D01*
X258343Y336083D01*
X258311Y336057D01*
X258290Y336046D01*
X258268Y336023D01*
X258212Y335978D01*
X211510Y289276D01*
X211463Y289210D01*
X211452Y289199D01*
X211449Y289193D01*
X211397Y289132D01*
X211385Y289102D01*
X211366Y289076D01*
X211339Y288989D01*
X211305Y288904D01*
X211301Y288863D01*
X211294Y288841D01*
X211295Y288809D01*
X211287Y288737D01*
X211287Y179815D01*
X211301Y179725D01*
X211309Y179634D01*
X211321Y179604D01*
X211326Y179572D01*
X211369Y179492D01*
X211405Y179408D01*
X211431Y179376D01*
X211442Y179355D01*
X211465Y179333D01*
X211510Y179277D01*
X213799Y176988D01*
X213799Y173012D01*
X210988Y170201D01*
X207012Y170201D01*
X204586Y172627D01*
X204528Y172669D01*
X204476Y172719D01*
X204429Y172740D01*
X204387Y172771D01*
X204318Y172792D01*
X204253Y172822D01*
X204201Y172828D01*
X204151Y172843D01*
X204080Y172841D01*
X204009Y172849D01*
X203958Y172838D01*
X203906Y172837D01*
X203838Y172812D01*
X203768Y172797D01*
X203723Y172770D01*
X203675Y172752D01*
X203619Y172708D01*
X203557Y172671D01*
X203523Y172631D01*
X203483Y172599D01*
X203444Y172538D01*
X203397Y172484D01*
X203378Y172436D01*
X203350Y172392D01*
X203332Y172322D01*
X203305Y172256D01*
X203297Y172184D01*
X203289Y172153D01*
X203291Y172130D01*
X203287Y172089D01*
X203287Y158815D01*
X203301Y158725D01*
X203309Y158634D01*
X203321Y158604D01*
X203326Y158572D01*
X203369Y158492D01*
X203405Y158408D01*
X203431Y158376D01*
X203442Y158355D01*
X203465Y158333D01*
X203510Y158277D01*
X205799Y155988D01*
X205799Y152012D01*
X202988Y149201D01*
X199012Y149201D01*
G37*
%LPD*%
%LPC*%
G36*
X290012Y77201D02*
X290012Y77201D01*
X287073Y80140D01*
X286999Y80193D01*
X286930Y80253D01*
X286900Y80265D01*
X286874Y80284D01*
X286787Y80311D01*
X286702Y80345D01*
X286661Y80349D01*
X286638Y80356D01*
X286606Y80355D01*
X286535Y80363D01*
X196304Y80363D01*
X99713Y176954D01*
X99713Y302185D01*
X99699Y302275D01*
X99691Y302366D01*
X99679Y302396D01*
X99674Y302428D01*
X99631Y302508D01*
X99595Y302592D01*
X99569Y302625D01*
X99558Y302645D01*
X99535Y302667D01*
X99490Y302723D01*
X97201Y305012D01*
X97201Y308988D01*
X100012Y311799D01*
X103988Y311799D01*
X106799Y308988D01*
X106799Y305012D01*
X104510Y302723D01*
X104457Y302649D01*
X104397Y302580D01*
X104385Y302550D01*
X104366Y302524D01*
X104339Y302437D01*
X104305Y302352D01*
X104301Y302311D01*
X104294Y302288D01*
X104295Y302256D01*
X104287Y302185D01*
X104287Y179163D01*
X104301Y179073D01*
X104309Y178982D01*
X104321Y178953D01*
X104326Y178921D01*
X104353Y178871D01*
X104354Y178869D01*
X104369Y178840D01*
X104405Y178756D01*
X104431Y178724D01*
X104442Y178703D01*
X104465Y178681D01*
X104470Y178675D01*
X104479Y178660D01*
X104489Y178651D01*
X104510Y178625D01*
X197975Y85160D01*
X198049Y85107D01*
X198119Y85047D01*
X198149Y85035D01*
X198175Y85016D01*
X198262Y84989D01*
X198347Y84955D01*
X198388Y84951D01*
X198410Y84944D01*
X198442Y84945D01*
X198513Y84937D01*
X287835Y84937D01*
X287925Y84951D01*
X288016Y84959D01*
X288046Y84971D01*
X288078Y84976D01*
X288158Y85019D01*
X288242Y85055D01*
X288275Y85081D01*
X288295Y85092D01*
X288317Y85115D01*
X288373Y85160D01*
X290012Y86799D01*
X293988Y86799D01*
X296799Y83988D01*
X296799Y80012D01*
X293988Y77201D01*
X290012Y77201D01*
G37*
%LPD*%
%LPC*%
G36*
X305012Y87201D02*
X305012Y87201D01*
X303025Y89188D01*
X302951Y89241D01*
X302882Y89301D01*
X302852Y89313D01*
X302826Y89332D01*
X302739Y89359D01*
X302654Y89393D01*
X302613Y89397D01*
X302590Y89404D01*
X302558Y89403D01*
X302487Y89411D01*
X207566Y89411D01*
X113276Y183702D01*
X111713Y185264D01*
X111713Y288565D01*
X111699Y288655D01*
X111691Y288746D01*
X111679Y288776D01*
X111674Y288808D01*
X111631Y288888D01*
X111595Y288972D01*
X111569Y289004D01*
X111558Y289025D01*
X111535Y289047D01*
X111490Y289103D01*
X109201Y291392D01*
X109201Y295368D01*
X112012Y298179D01*
X115988Y298179D01*
X118799Y295368D01*
X118799Y291392D01*
X116510Y289103D01*
X116457Y289029D01*
X116397Y288960D01*
X116385Y288930D01*
X116366Y288904D01*
X116339Y288817D01*
X116305Y288732D01*
X116301Y288691D01*
X116294Y288668D01*
X116295Y288636D01*
X116287Y288565D01*
X116287Y187474D01*
X116301Y187384D01*
X116309Y187293D01*
X116321Y187263D01*
X116326Y187231D01*
X116369Y187150D01*
X116405Y187067D01*
X116431Y187034D01*
X116442Y187014D01*
X116465Y186992D01*
X116510Y186936D01*
X209238Y94208D01*
X209312Y94155D01*
X209381Y94095D01*
X209411Y94083D01*
X209437Y94064D01*
X209524Y94037D01*
X209609Y94003D01*
X209650Y93999D01*
X209672Y93992D01*
X209705Y93993D01*
X209776Y93985D01*
X301883Y93985D01*
X301973Y93999D01*
X302064Y94007D01*
X302094Y94019D01*
X302126Y94024D01*
X302206Y94067D01*
X302290Y94103D01*
X302322Y94129D01*
X302343Y94140D01*
X302365Y94163D01*
X302421Y94208D01*
X305012Y96799D01*
X308988Y96799D01*
X311799Y93988D01*
X311799Y90012D01*
X308988Y87201D01*
X305012Y87201D01*
G37*
%LPD*%
%LPC*%
G36*
X219012Y193201D02*
X219012Y193201D01*
X216201Y196012D01*
X216201Y199988D01*
X218490Y202277D01*
X218543Y202351D01*
X218603Y202420D01*
X218615Y202450D01*
X218634Y202476D01*
X218661Y202563D01*
X218695Y202648D01*
X218699Y202689D01*
X218706Y202712D01*
X218705Y202744D01*
X218713Y202815D01*
X218713Y287947D01*
X256978Y326212D01*
X257031Y326286D01*
X257091Y326356D01*
X257103Y326386D01*
X257122Y326412D01*
X257149Y326499D01*
X257183Y326584D01*
X257187Y326625D01*
X257194Y326647D01*
X257193Y326679D01*
X257201Y326751D01*
X257201Y329988D01*
X260012Y332799D01*
X263988Y332799D01*
X266799Y329988D01*
X266799Y326012D01*
X263988Y323201D01*
X260751Y323201D01*
X260660Y323187D01*
X260570Y323179D01*
X260540Y323167D01*
X260508Y323162D01*
X260427Y323119D01*
X260343Y323083D01*
X260311Y323057D01*
X260290Y323046D01*
X260268Y323023D01*
X260212Y322978D01*
X223510Y286276D01*
X223457Y286202D01*
X223397Y286132D01*
X223385Y286102D01*
X223366Y286076D01*
X223339Y285989D01*
X223323Y285948D01*
X223315Y285931D01*
X223314Y285927D01*
X223305Y285904D01*
X223301Y285863D01*
X223294Y285841D01*
X223295Y285809D01*
X223287Y285737D01*
X223287Y218911D01*
X223298Y218840D01*
X223300Y218769D01*
X223318Y218720D01*
X223326Y218668D01*
X223360Y218605D01*
X223385Y218538D01*
X223417Y218497D01*
X223442Y218451D01*
X223494Y218401D01*
X223538Y218345D01*
X223582Y218317D01*
X223620Y218281D01*
X223685Y218251D01*
X223745Y218212D01*
X223796Y218200D01*
X223843Y218178D01*
X223914Y218170D01*
X223984Y218152D01*
X224036Y218156D01*
X224087Y218151D01*
X224158Y218166D01*
X224229Y218172D01*
X224277Y218192D01*
X224328Y218203D01*
X224389Y218240D01*
X224455Y218268D01*
X224511Y218313D01*
X224539Y218329D01*
X224554Y218347D01*
X224586Y218373D01*
X226490Y220277D01*
X226543Y220351D01*
X226603Y220420D01*
X226615Y220450D01*
X226634Y220476D01*
X226661Y220564D01*
X226695Y220648D01*
X226699Y220689D01*
X226706Y220712D01*
X226705Y220744D01*
X226713Y220815D01*
X226713Y272947D01*
X267978Y314212D01*
X268031Y314286D01*
X268091Y314356D01*
X268103Y314386D01*
X268122Y314412D01*
X268149Y314499D01*
X268183Y314584D01*
X268187Y314625D01*
X268194Y314647D01*
X268193Y314679D01*
X268201Y314751D01*
X268201Y317988D01*
X271012Y320799D01*
X274988Y320799D01*
X277799Y317988D01*
X277799Y314012D01*
X274988Y311201D01*
X271751Y311201D01*
X271660Y311187D01*
X271570Y311179D01*
X271540Y311167D01*
X271508Y311162D01*
X271427Y311119D01*
X271343Y311083D01*
X271311Y311057D01*
X271290Y311046D01*
X271268Y311023D01*
X271212Y310978D01*
X231510Y271276D01*
X231457Y271202D01*
X231397Y271132D01*
X231385Y271102D01*
X231366Y271076D01*
X231339Y270989D01*
X231305Y270904D01*
X231301Y270863D01*
X231294Y270841D01*
X231295Y270809D01*
X231287Y270737D01*
X231287Y220815D01*
X231301Y220725D01*
X231309Y220634D01*
X231321Y220604D01*
X231326Y220572D01*
X231369Y220492D01*
X231405Y220408D01*
X231431Y220376D01*
X231442Y220355D01*
X231465Y220333D01*
X231510Y220277D01*
X233799Y217988D01*
X233799Y214012D01*
X230988Y211201D01*
X227012Y211201D01*
X224586Y213627D01*
X224528Y213669D01*
X224476Y213719D01*
X224429Y213740D01*
X224387Y213771D01*
X224318Y213792D01*
X224253Y213822D01*
X224201Y213828D01*
X224151Y213843D01*
X224080Y213841D01*
X224009Y213849D01*
X223958Y213838D01*
X223906Y213837D01*
X223838Y213812D01*
X223768Y213797D01*
X223723Y213770D01*
X223675Y213752D01*
X223619Y213708D01*
X223557Y213671D01*
X223523Y213631D01*
X223483Y213599D01*
X223444Y213538D01*
X223397Y213484D01*
X223378Y213436D01*
X223350Y213392D01*
X223332Y213322D01*
X223305Y213256D01*
X223297Y213184D01*
X223289Y213153D01*
X223291Y213130D01*
X223287Y213089D01*
X223287Y202815D01*
X223301Y202725D01*
X223309Y202634D01*
X223321Y202604D01*
X223326Y202572D01*
X223369Y202492D01*
X223405Y202408D01*
X223431Y202376D01*
X223442Y202355D01*
X223465Y202333D01*
X223510Y202277D01*
X225799Y199988D01*
X225799Y196012D01*
X222988Y193201D01*
X219012Y193201D01*
G37*
%LPD*%
%LPC*%
G36*
X213612Y353801D02*
X213612Y353801D01*
X210801Y356612D01*
X210801Y360588D01*
X213612Y363399D01*
X216849Y363399D01*
X216940Y363413D01*
X217030Y363421D01*
X217060Y363433D01*
X217092Y363438D01*
X217173Y363481D01*
X217257Y363517D01*
X217289Y363543D01*
X217310Y363554D01*
X217332Y363577D01*
X217388Y363622D01*
X244053Y390287D01*
X431440Y390287D01*
X431460Y390290D01*
X431479Y390288D01*
X431581Y390310D01*
X431683Y390326D01*
X431700Y390336D01*
X431720Y390340D01*
X431809Y390393D01*
X431900Y390442D01*
X431914Y390456D01*
X431931Y390466D01*
X431998Y390545D01*
X432070Y390620D01*
X432078Y390638D01*
X432091Y390653D01*
X432130Y390749D01*
X432173Y390843D01*
X432175Y390863D01*
X432183Y390881D01*
X432201Y391048D01*
X432201Y392988D01*
X435012Y395799D01*
X438988Y395799D01*
X441799Y392988D01*
X441799Y389012D01*
X438988Y386201D01*
X435751Y386201D01*
X435660Y386187D01*
X435570Y386179D01*
X435540Y386167D01*
X435508Y386162D01*
X435427Y386119D01*
X435343Y386083D01*
X435311Y386057D01*
X435290Y386046D01*
X435268Y386023D01*
X435212Y385978D01*
X434947Y385713D01*
X246263Y385713D01*
X246172Y385699D01*
X246082Y385691D01*
X246052Y385679D01*
X246020Y385674D01*
X245939Y385631D01*
X245855Y385595D01*
X245823Y385569D01*
X245802Y385558D01*
X245780Y385535D01*
X245724Y385490D01*
X220622Y360388D01*
X220569Y360314D01*
X220509Y360244D01*
X220497Y360214D01*
X220478Y360188D01*
X220451Y360101D01*
X220417Y360016D01*
X220413Y359975D01*
X220406Y359953D01*
X220407Y359921D01*
X220399Y359849D01*
X220399Y356612D01*
X217588Y353801D01*
X213612Y353801D01*
G37*
%LPD*%
%LPC*%
G36*
X297012Y235201D02*
X297012Y235201D01*
X294201Y238012D01*
X294201Y241988D01*
X296490Y244277D01*
X296543Y244351D01*
X296603Y244420D01*
X296615Y244450D01*
X296634Y244476D01*
X296661Y244563D01*
X296695Y244648D01*
X296699Y244689D01*
X296706Y244712D01*
X296705Y244744D01*
X296713Y244815D01*
X296713Y273089D01*
X296702Y273160D01*
X296700Y273231D01*
X296682Y273280D01*
X296674Y273332D01*
X296640Y273395D01*
X296615Y273462D01*
X296583Y273503D01*
X296558Y273549D01*
X296506Y273599D01*
X296462Y273655D01*
X296418Y273683D01*
X296380Y273719D01*
X296315Y273749D01*
X296255Y273788D01*
X296204Y273800D01*
X296157Y273822D01*
X296086Y273830D01*
X296016Y273848D01*
X295964Y273844D01*
X295913Y273849D01*
X295842Y273834D01*
X295771Y273828D01*
X295723Y273808D01*
X295672Y273797D01*
X295611Y273760D01*
X295545Y273732D01*
X295489Y273687D01*
X295461Y273671D01*
X295446Y273653D01*
X295414Y273627D01*
X294510Y272723D01*
X294457Y272649D01*
X294397Y272580D01*
X294385Y272550D01*
X294366Y272524D01*
X294339Y272436D01*
X294305Y272352D01*
X294301Y272311D01*
X294294Y272288D01*
X294295Y272256D01*
X294287Y272185D01*
X294287Y257053D01*
X285022Y247788D01*
X284969Y247714D01*
X284909Y247644D01*
X284897Y247614D01*
X284878Y247588D01*
X284851Y247501D01*
X284817Y247416D01*
X284813Y247375D01*
X284806Y247353D01*
X284807Y247321D01*
X284799Y247249D01*
X284799Y244012D01*
X281988Y241201D01*
X278012Y241201D01*
X275201Y244012D01*
X275201Y247988D01*
X278012Y250799D01*
X281249Y250799D01*
X281340Y250813D01*
X281430Y250821D01*
X281460Y250833D01*
X281492Y250838D01*
X281573Y250881D01*
X281657Y250917D01*
X281689Y250943D01*
X281710Y250954D01*
X281732Y250977D01*
X281788Y251022D01*
X289490Y258724D01*
X289543Y258798D01*
X289603Y258868D01*
X289615Y258898D01*
X289634Y258924D01*
X289661Y259011D01*
X289695Y259096D01*
X289699Y259137D01*
X289706Y259159D01*
X289705Y259191D01*
X289713Y259263D01*
X289713Y272185D01*
X289699Y272275D01*
X289691Y272366D01*
X289679Y272396D01*
X289674Y272428D01*
X289631Y272508D01*
X289595Y272592D01*
X289569Y272624D01*
X289558Y272645D01*
X289535Y272667D01*
X289490Y272723D01*
X287201Y275012D01*
X287201Y278988D01*
X290012Y281799D01*
X293988Y281799D01*
X295414Y280373D01*
X295472Y280331D01*
X295524Y280281D01*
X295571Y280260D01*
X295613Y280229D01*
X295682Y280208D01*
X295747Y280178D01*
X295799Y280172D01*
X295849Y280157D01*
X295920Y280159D01*
X295991Y280151D01*
X296042Y280162D01*
X296094Y280163D01*
X296162Y280188D01*
X296232Y280203D01*
X296277Y280230D01*
X296325Y280248D01*
X296381Y280292D01*
X296443Y280329D01*
X296477Y280369D01*
X296517Y280401D01*
X296556Y280462D01*
X296603Y280516D01*
X296622Y280564D01*
X296650Y280608D01*
X296668Y280678D01*
X296695Y280744D01*
X296703Y280816D01*
X296711Y280847D01*
X296709Y280870D01*
X296713Y280911D01*
X296713Y373185D01*
X296699Y373275D01*
X296691Y373366D01*
X296679Y373396D01*
X296674Y373428D01*
X296631Y373508D01*
X296595Y373592D01*
X296569Y373624D01*
X296558Y373645D01*
X296535Y373667D01*
X296490Y373723D01*
X294201Y376012D01*
X294201Y379988D01*
X297012Y382799D01*
X300988Y382799D01*
X303799Y379988D01*
X303799Y376012D01*
X301510Y373723D01*
X301457Y373649D01*
X301397Y373580D01*
X301385Y373550D01*
X301366Y373524D01*
X301339Y373437D01*
X301305Y373352D01*
X301301Y373311D01*
X301294Y373288D01*
X301295Y373256D01*
X301287Y373185D01*
X301287Y244815D01*
X301301Y244725D01*
X301309Y244634D01*
X301321Y244604D01*
X301326Y244572D01*
X301369Y244492D01*
X301405Y244408D01*
X301431Y244376D01*
X301442Y244355D01*
X301465Y244333D01*
X301510Y244277D01*
X303799Y241988D01*
X303799Y238012D01*
X300988Y235201D01*
X297012Y235201D01*
G37*
%LPD*%
%LPC*%
G36*
X114012Y315101D02*
X114012Y315101D01*
X111201Y317912D01*
X111201Y321888D01*
X114012Y324699D01*
X117988Y324699D01*
X120277Y322410D01*
X120351Y322357D01*
X120420Y322297D01*
X120450Y322285D01*
X120476Y322266D01*
X120563Y322239D01*
X120648Y322205D01*
X120689Y322201D01*
X120712Y322194D01*
X120744Y322195D01*
X120815Y322187D01*
X195197Y322187D01*
X195288Y322201D01*
X195378Y322209D01*
X195408Y322221D01*
X195440Y322226D01*
X195521Y322269D01*
X195605Y322305D01*
X195637Y322331D01*
X195658Y322342D01*
X195680Y322365D01*
X195736Y322410D01*
X249978Y376652D01*
X250031Y376726D01*
X250091Y376796D01*
X250103Y376826D01*
X250122Y376852D01*
X250149Y376939D01*
X250183Y377024D01*
X250187Y377065D01*
X250194Y377087D01*
X250193Y377119D01*
X250201Y377191D01*
X250201Y380428D01*
X253012Y383239D01*
X256988Y383239D01*
X259799Y380428D01*
X259799Y376452D01*
X256988Y373641D01*
X253751Y373641D01*
X253660Y373627D01*
X253570Y373619D01*
X253540Y373607D01*
X253508Y373602D01*
X253427Y373559D01*
X253343Y373523D01*
X253311Y373497D01*
X253290Y373486D01*
X253268Y373463D01*
X253212Y373418D01*
X197407Y317613D01*
X120815Y317613D01*
X120725Y317599D01*
X120634Y317591D01*
X120604Y317579D01*
X120572Y317574D01*
X120492Y317531D01*
X120408Y317495D01*
X120376Y317469D01*
X120355Y317458D01*
X120333Y317435D01*
X120277Y317390D01*
X117988Y315101D01*
X114012Y315101D01*
G37*
%LPD*%
%LPC*%
G36*
X252307Y393459D02*
X252307Y393459D01*
X247330Y395521D01*
X243521Y399330D01*
X241459Y404307D01*
X241459Y409693D01*
X243521Y414670D01*
X247330Y418479D01*
X252307Y420541D01*
X257693Y420541D01*
X262670Y418479D01*
X266479Y414670D01*
X268541Y409693D01*
X268541Y404307D01*
X266479Y399330D01*
X262670Y395521D01*
X257693Y393459D01*
X252307Y393459D01*
G37*
%LPD*%
%LPC*%
G36*
X240012Y225201D02*
X240012Y225201D01*
X237201Y228012D01*
X237201Y231988D01*
X239490Y234277D01*
X239543Y234351D01*
X239603Y234420D01*
X239615Y234450D01*
X239634Y234476D01*
X239661Y234563D01*
X239695Y234648D01*
X239699Y234689D01*
X239706Y234712D01*
X239705Y234744D01*
X239713Y234815D01*
X239713Y266947D01*
X279978Y307212D01*
X280031Y307286D01*
X280091Y307356D01*
X280103Y307386D01*
X280122Y307412D01*
X280149Y307499D01*
X280183Y307584D01*
X280187Y307625D01*
X280194Y307647D01*
X280193Y307679D01*
X280201Y307751D01*
X280201Y310988D01*
X283012Y313799D01*
X286988Y313799D01*
X289799Y310988D01*
X289799Y307012D01*
X286988Y304201D01*
X283751Y304201D01*
X283660Y304187D01*
X283570Y304179D01*
X283540Y304167D01*
X283508Y304162D01*
X283427Y304119D01*
X283343Y304083D01*
X283311Y304057D01*
X283290Y304046D01*
X283268Y304023D01*
X283212Y303978D01*
X244510Y265276D01*
X244457Y265202D01*
X244397Y265132D01*
X244385Y265102D01*
X244366Y265076D01*
X244339Y264989D01*
X244305Y264904D01*
X244301Y264863D01*
X244294Y264841D01*
X244295Y264809D01*
X244287Y264737D01*
X244287Y234815D01*
X244301Y234725D01*
X244309Y234634D01*
X244321Y234604D01*
X244326Y234572D01*
X244369Y234492D01*
X244405Y234408D01*
X244431Y234376D01*
X244442Y234355D01*
X244465Y234333D01*
X244510Y234277D01*
X246799Y231988D01*
X246799Y228012D01*
X243988Y225201D01*
X240012Y225201D01*
G37*
%LPD*%
%LPC*%
G36*
X80512Y177201D02*
X80512Y177201D01*
X77701Y180012D01*
X77701Y183988D01*
X79990Y186277D01*
X80043Y186351D01*
X80103Y186420D01*
X80115Y186450D01*
X80134Y186476D01*
X80161Y186563D01*
X80195Y186648D01*
X80199Y186689D01*
X80206Y186712D01*
X80205Y186744D01*
X80213Y186815D01*
X80213Y250185D01*
X80199Y250275D01*
X80191Y250366D01*
X80179Y250396D01*
X80174Y250428D01*
X80131Y250508D01*
X80095Y250592D01*
X80069Y250624D01*
X80058Y250645D01*
X80035Y250667D01*
X79990Y250723D01*
X77701Y253012D01*
X77701Y256988D01*
X80512Y259799D01*
X84488Y259799D01*
X87299Y256988D01*
X87299Y253012D01*
X85010Y250723D01*
X84957Y250649D01*
X84897Y250580D01*
X84885Y250550D01*
X84866Y250524D01*
X84839Y250437D01*
X84805Y250352D01*
X84801Y250311D01*
X84794Y250288D01*
X84795Y250256D01*
X84787Y250185D01*
X84787Y186815D01*
X84801Y186725D01*
X84809Y186634D01*
X84821Y186604D01*
X84826Y186572D01*
X84869Y186492D01*
X84905Y186408D01*
X84931Y186376D01*
X84942Y186355D01*
X84965Y186333D01*
X85010Y186277D01*
X87299Y183988D01*
X87299Y180012D01*
X84488Y177201D01*
X80512Y177201D01*
G37*
%LPD*%
%LPC*%
G36*
X251012Y235201D02*
X251012Y235201D01*
X248201Y238012D01*
X248201Y241988D01*
X250490Y244277D01*
X250543Y244351D01*
X250603Y244420D01*
X250615Y244450D01*
X250634Y244476D01*
X250661Y244563D01*
X250695Y244648D01*
X250699Y244689D01*
X250706Y244712D01*
X250705Y244744D01*
X250713Y244815D01*
X250713Y260947D01*
X277978Y288212D01*
X278031Y288286D01*
X278091Y288356D01*
X278103Y288386D01*
X278122Y288412D01*
X278149Y288499D01*
X278183Y288584D01*
X278187Y288625D01*
X278194Y288647D01*
X278193Y288679D01*
X278201Y288751D01*
X278201Y291988D01*
X281012Y294799D01*
X284988Y294799D01*
X287799Y291988D01*
X287799Y288012D01*
X284988Y285201D01*
X281751Y285201D01*
X281660Y285187D01*
X281570Y285179D01*
X281540Y285167D01*
X281508Y285162D01*
X281427Y285119D01*
X281343Y285083D01*
X281311Y285057D01*
X281290Y285046D01*
X281268Y285023D01*
X281212Y284978D01*
X255510Y259276D01*
X255457Y259202D01*
X255397Y259132D01*
X255385Y259102D01*
X255366Y259076D01*
X255339Y258989D01*
X255305Y258904D01*
X255301Y258863D01*
X255294Y258841D01*
X255295Y258809D01*
X255287Y258737D01*
X255287Y244815D01*
X255301Y244725D01*
X255309Y244634D01*
X255321Y244604D01*
X255326Y244572D01*
X255369Y244492D01*
X255405Y244408D01*
X255431Y244376D01*
X255442Y244355D01*
X255465Y244333D01*
X255510Y244277D01*
X257799Y241988D01*
X257799Y238012D01*
X254988Y235201D01*
X251012Y235201D01*
G37*
%LPD*%
D10*
X488000Y87000D03*
X230000Y452000D03*
D11*
X389000Y452000D02*
X390000Y453000D01*
D10*
X368300Y185000D03*
X127000Y400000D03*
X179500Y402000D03*
D11*
X181000Y402000D01*
D10*
X280000Y246000D03*
D11*
X292000Y258000D02*
X292000Y277000D01*
X292000Y258000D02*
X280000Y246000D01*
D10*
X292000Y277000D03*
X253000Y240000D03*
D11*
X253000Y260000D01*
X283000Y290000D01*
D10*
X283000Y290000D03*
X242000Y230000D03*
D11*
X242000Y266000D01*
X285000Y309000D01*
D10*
X285000Y309000D03*
X229000Y216000D03*
X273000Y316000D03*
D11*
X229000Y272000D02*
X229000Y216000D01*
X229000Y272000D02*
X273000Y316000D01*
D10*
X82500Y182000D03*
D11*
X82500Y255000D01*
D10*
X82500Y255000D03*
X328000Y107000D03*
D11*
X377000Y265000D02*
X410000Y265000D01*
X377000Y265000D02*
X328000Y216000D01*
X328000Y107000D01*
D10*
X410000Y265000D03*
D11*
X208000Y107000D02*
X131000Y184000D01*
X208000Y107000D02*
X328000Y107000D01*
D10*
X131000Y281000D03*
D11*
X131000Y184000D01*
D10*
X307000Y92000D03*
X114000Y293380D03*
D11*
X307000Y92000D02*
X306698Y91698D01*
X208513Y91698D01*
X114000Y186211D01*
X114000Y293380D01*
D10*
X292000Y82000D03*
X102000Y307000D03*
D11*
X289000Y82000D02*
X292000Y82000D01*
X289000Y82000D02*
X288350Y82650D01*
X197251Y82650D01*
X102000Y177901D01*
X102000Y307000D01*
D10*
X384000Y332000D03*
D11*
X384000Y311000D01*
X296802Y223802D01*
X296802Y137198D01*
X320000Y114000D01*
D10*
X320000Y114000D03*
X116000Y319900D03*
D11*
X196460Y319900D01*
X255000Y378440D01*
D10*
X255000Y378440D03*
X437000Y391000D03*
D11*
X245000Y388000D02*
X215600Y358600D01*
D10*
X215600Y358600D03*
D11*
X434000Y388000D02*
X437000Y391000D01*
X434000Y388000D02*
X245000Y388000D01*
D10*
X221000Y198000D03*
D11*
X221000Y287000D01*
X262000Y328000D01*
D10*
X262000Y328000D03*
X209000Y175000D03*
D11*
X209000Y290000D02*
X260000Y341000D01*
X209000Y290000D02*
X209000Y175000D01*
D10*
X260000Y341000D03*
D11*
X253000Y352000D02*
X203000Y302000D01*
D10*
X253000Y352000D03*
D11*
X203000Y302000D02*
X201000Y300000D01*
X201000Y154000D01*
D10*
X201000Y154000D03*
X303000Y191000D03*
D11*
X303000Y193000D02*
X303000Y223000D01*
X303000Y193000D02*
X303000Y191000D01*
X408000Y328000D02*
X410000Y328000D01*
X408000Y328000D02*
X303000Y223000D01*
D10*
X410000Y328000D03*
X310000Y170000D03*
D11*
X310000Y171000D01*
X310000Y222000D01*
X400000Y312000D02*
X410000Y312000D01*
X400000Y312000D02*
X310000Y222000D01*
D10*
X410000Y312000D03*
X322000Y149000D03*
D11*
X322000Y218000D01*
X382000Y278000D02*
X410000Y278000D01*
X382000Y278000D02*
X322000Y218000D01*
D10*
X410000Y278000D03*
X316000Y134000D03*
D11*
X316000Y136000D02*
X316000Y220000D01*
X316000Y136000D02*
X316000Y134000D01*
D10*
X410000Y297000D03*
D11*
X393000Y297000D01*
X316000Y220000D01*
D10*
X299000Y240000D03*
X299000Y378000D03*
D11*
X299000Y240000D01*
M02*
