G04 EAGLE Gerber RS-274X export*
G75*
%MOMM*%
%FSLAX34Y34*%
%LPD*%
%IN*%
%IPPOS*%
%AMOC8*
5,1,8,0,0,1.08239X$1,22.5*%
G01*
%ADD10C,0.254000*%


D10*
X8500Y0D02*
X501500Y0D01*
X501500Y480000D01*
X8500Y480000D01*
X8500Y0D01*
X291500Y155657D02*
X291422Y153972D01*
X291267Y152293D01*
X291033Y150622D01*
X290724Y148964D01*
X290337Y147322D01*
X289876Y145700D01*
X289340Y144101D01*
X288731Y142528D01*
X288049Y140985D01*
X287298Y139476D01*
X286477Y138002D01*
X285589Y136568D01*
X284636Y135177D01*
X283619Y133831D01*
X282542Y132533D01*
X281406Y131287D01*
X280213Y130094D01*
X278967Y128958D01*
X277669Y127881D01*
X276323Y126864D01*
X274932Y125911D01*
X273498Y125023D01*
X272024Y124202D01*
X270515Y123451D01*
X268972Y122769D01*
X267399Y122160D01*
X265800Y121624D01*
X264178Y121163D01*
X262536Y120776D01*
X260878Y120467D01*
X259208Y120234D01*
X257528Y120078D01*
X255843Y120000D01*
X254157Y120000D01*
X252472Y120078D01*
X250793Y120234D01*
X249122Y120467D01*
X247464Y120776D01*
X245822Y121163D01*
X244200Y121624D01*
X242601Y122160D01*
X241028Y122769D01*
X239485Y123451D01*
X237976Y124202D01*
X236502Y125023D01*
X235068Y125911D01*
X233677Y126864D01*
X232331Y127881D01*
X231033Y128958D01*
X229787Y130094D01*
X228594Y131287D01*
X227458Y132533D01*
X226381Y133831D01*
X225364Y135177D01*
X224411Y136568D01*
X223523Y138002D01*
X222702Y139476D01*
X221951Y140985D01*
X221269Y142528D01*
X220660Y144101D01*
X220124Y145700D01*
X219663Y147322D01*
X219276Y148964D01*
X218967Y150622D01*
X218734Y152293D01*
X218578Y153972D01*
X218500Y155657D01*
X218500Y157343D01*
X218578Y159028D01*
X218734Y160708D01*
X218967Y162378D01*
X219276Y164036D01*
X219663Y165678D01*
X220124Y167300D01*
X220660Y168899D01*
X221269Y170472D01*
X221951Y172015D01*
X222702Y173524D01*
X223523Y174998D01*
X224411Y176432D01*
X225364Y177823D01*
X226381Y179169D01*
X227458Y180467D01*
X228594Y181713D01*
X229787Y182906D01*
X231033Y184042D01*
X232331Y185119D01*
X233677Y186136D01*
X235068Y187089D01*
X236502Y187977D01*
X237976Y188798D01*
X239485Y189549D01*
X241028Y190231D01*
X242601Y190840D01*
X244200Y191376D01*
X245822Y191837D01*
X247464Y192224D01*
X249122Y192533D01*
X250793Y192767D01*
X252472Y192922D01*
X254157Y193000D01*
X255843Y193000D01*
X257528Y192922D01*
X259208Y192767D01*
X260878Y192533D01*
X262536Y192224D01*
X264178Y191837D01*
X265800Y191376D01*
X267399Y190840D01*
X268972Y190231D01*
X270515Y189549D01*
X272024Y188798D01*
X273498Y187977D01*
X274932Y187089D01*
X276323Y186136D01*
X277669Y185119D01*
X278967Y184042D01*
X280213Y182906D01*
X281406Y181713D01*
X282542Y180467D01*
X283619Y179169D01*
X284636Y177823D01*
X285589Y176432D01*
X286477Y174998D01*
X287298Y173524D01*
X288049Y172015D01*
X288731Y170472D01*
X289340Y168899D01*
X289876Y167300D01*
X290337Y165678D01*
X290724Y164036D01*
X291033Y162378D01*
X291267Y160708D01*
X291422Y159028D01*
X291500Y157343D01*
X291500Y155657D01*
X266000Y406568D02*
X265932Y405706D01*
X265797Y404852D01*
X265595Y404012D01*
X265328Y403190D01*
X264997Y402391D01*
X264605Y401621D01*
X264153Y400884D01*
X263645Y400185D01*
X263084Y399527D01*
X262473Y398916D01*
X261815Y398355D01*
X261116Y397847D01*
X260379Y397395D01*
X259609Y397003D01*
X258810Y396672D01*
X257988Y396405D01*
X257148Y396203D01*
X256294Y396068D01*
X255432Y396000D01*
X254568Y396000D01*
X253706Y396068D01*
X252852Y396203D01*
X252012Y396405D01*
X251190Y396672D01*
X250391Y397003D01*
X249621Y397395D01*
X248884Y397847D01*
X248185Y398355D01*
X247527Y398916D01*
X246916Y399527D01*
X246355Y400185D01*
X245847Y400884D01*
X245395Y401621D01*
X245003Y402391D01*
X244672Y403190D01*
X244405Y404012D01*
X244203Y404852D01*
X244068Y405706D01*
X244000Y406568D01*
X244000Y407432D01*
X244068Y408294D01*
X244203Y409148D01*
X244405Y409988D01*
X244672Y410810D01*
X245003Y411609D01*
X245395Y412379D01*
X245847Y413116D01*
X246355Y413815D01*
X246916Y414473D01*
X247527Y415084D01*
X248185Y415645D01*
X248884Y416153D01*
X249621Y416605D01*
X250391Y416997D01*
X251190Y417328D01*
X252012Y417595D01*
X252852Y417797D01*
X253706Y417932D01*
X254568Y418000D01*
X255432Y418000D01*
X256294Y417932D01*
X257148Y417797D01*
X257988Y417595D01*
X258810Y417328D01*
X259609Y416997D01*
X260379Y416605D01*
X261116Y416153D01*
X261815Y415645D01*
X262473Y415084D01*
X263084Y414473D01*
X263645Y413815D01*
X264153Y413116D01*
X264605Y412379D01*
X264997Y411609D01*
X265328Y410810D01*
X265595Y409988D01*
X265797Y409148D01*
X265932Y408294D01*
X266000Y407432D01*
X266000Y406568D01*
M02*
