G04 EAGLE Gerber RS-274X export*
G75*
%MOMM*%
%FSLAX34Y34*%
%LPD*%
%INSilkscreen Top*%
%IPPOS*%
%AMOC8*
5,1,8,0,0,1.08239X$1,22.5*%
G01*
%ADD10C,0.152400*%
%ADD11C,0.076200*%
%ADD12C,0.203200*%
%ADD13C,0.609600*%
%ADD14C,0.101600*%


D10*
X15762Y458762D02*
X15762Y475032D01*
X15762Y466897D02*
X26609Y466897D01*
X26609Y475032D02*
X26609Y458762D01*
X34845Y458762D02*
X40269Y458762D01*
X42980Y461474D01*
X42980Y466897D01*
X40269Y469609D01*
X34845Y469609D01*
X32134Y466897D01*
X32134Y461474D01*
X34845Y458762D01*
X48505Y458762D02*
X48505Y469609D01*
X51217Y469609D01*
X53928Y466897D01*
X53928Y458762D01*
X53928Y466897D02*
X56640Y469609D01*
X59352Y466897D01*
X59352Y458762D01*
X67588Y458762D02*
X73012Y458762D01*
X67588Y458762D02*
X64877Y461474D01*
X64877Y466897D01*
X67588Y469609D01*
X73012Y469609D01*
X75723Y466897D01*
X75723Y464185D01*
X64877Y464185D01*
X81248Y458762D02*
X81248Y475032D01*
X81248Y458762D02*
X89383Y458762D01*
X92095Y461474D01*
X92095Y466897D01*
X89383Y469609D01*
X81248Y469609D01*
X97620Y469609D02*
X97620Y458762D01*
X97620Y464185D02*
X103043Y469609D01*
X105755Y469609D01*
X113974Y458762D02*
X119398Y458762D01*
X113974Y458762D02*
X111263Y461474D01*
X111263Y466897D01*
X113974Y469609D01*
X119398Y469609D01*
X122109Y466897D01*
X122109Y464185D01*
X111263Y464185D01*
X127634Y461474D02*
X127634Y469609D01*
X127634Y461474D02*
X130346Y458762D01*
X133058Y461474D01*
X135769Y458762D01*
X138481Y461474D01*
X138481Y469609D01*
X26609Y447320D02*
X23897Y450032D01*
X18474Y450032D01*
X15762Y447320D01*
X15762Y436474D01*
X18474Y433762D01*
X23897Y433762D01*
X26609Y436474D01*
X26609Y441897D01*
X21185Y441897D01*
X34845Y444609D02*
X40269Y444609D01*
X42980Y441897D01*
X42980Y433762D01*
X34845Y433762D01*
X32134Y436474D01*
X34845Y439185D01*
X42980Y439185D01*
X48505Y433762D02*
X48505Y444609D01*
X51217Y444609D01*
X53928Y441897D01*
X53928Y433762D01*
X53928Y441897D02*
X56640Y444609D01*
X59352Y441897D01*
X59352Y433762D01*
X67588Y433762D02*
X73012Y433762D01*
X67588Y433762D02*
X64877Y436474D01*
X64877Y441897D01*
X67588Y444609D01*
X73012Y444609D01*
X75723Y441897D01*
X75723Y439185D01*
X64877Y439185D01*
X81248Y433762D02*
X81248Y450032D01*
X81248Y433762D02*
X89383Y433762D01*
X92095Y436474D01*
X92095Y441897D01*
X89383Y444609D01*
X81248Y444609D01*
X100331Y433762D02*
X105755Y433762D01*
X108466Y436474D01*
X108466Y441897D01*
X105755Y444609D01*
X100331Y444609D01*
X97620Y441897D01*
X97620Y436474D01*
X100331Y433762D01*
X113991Y436474D02*
X113991Y444609D01*
X113991Y436474D02*
X116703Y433762D01*
X124838Y433762D01*
X124838Y431050D02*
X124838Y444609D01*
X124838Y431050D02*
X122126Y428339D01*
X119415Y428339D01*
X26609Y422320D02*
X23897Y425032D01*
X18474Y425032D01*
X15762Y422320D01*
X15762Y411474D01*
X18474Y408762D01*
X23897Y408762D01*
X26609Y411474D01*
X34845Y419609D02*
X40269Y419609D01*
X42980Y416897D01*
X42980Y408762D01*
X34845Y408762D01*
X32134Y411474D01*
X34845Y414185D01*
X42980Y414185D01*
X48505Y408762D02*
X48505Y419609D01*
X53928Y419609D02*
X48505Y414185D01*
X53928Y419609D02*
X56640Y419609D01*
X64860Y422320D02*
X64860Y411474D01*
X67571Y408762D01*
X67571Y419609D02*
X62148Y419609D01*
X73062Y419609D02*
X73062Y408762D01*
X73062Y414185D02*
X78486Y419609D01*
X81197Y419609D01*
X86705Y419609D02*
X89417Y419609D01*
X89417Y408762D01*
X86705Y408762D02*
X92129Y408762D01*
X89417Y425032D02*
X89417Y427744D01*
X108466Y425032D02*
X108466Y408762D01*
X100331Y408762D01*
X97620Y411474D01*
X97620Y416897D01*
X100331Y419609D01*
X108466Y419609D01*
X119415Y403339D02*
X122126Y403339D01*
X124838Y406050D01*
X124838Y419609D01*
X116703Y419609D01*
X113991Y416897D01*
X113991Y411474D01*
X116703Y408762D01*
X124838Y408762D01*
X133075Y408762D02*
X138498Y408762D01*
X133075Y408762D02*
X130363Y411474D01*
X130363Y416897D01*
X133075Y419609D01*
X138498Y419609D01*
X141210Y416897D01*
X141210Y414185D01*
X130363Y414185D01*
X306185Y445339D02*
X308897Y445339D01*
X311609Y448050D01*
X311609Y461609D01*
X303474Y461609D01*
X300762Y458897D01*
X300762Y453474D01*
X303474Y450762D01*
X311609Y450762D01*
X319845Y450762D02*
X325269Y450762D01*
X327980Y453474D01*
X327980Y458897D01*
X325269Y461609D01*
X319845Y461609D01*
X317134Y458897D01*
X317134Y453474D01*
X319845Y450762D01*
X336217Y450762D02*
X341640Y450762D01*
X344352Y453474D01*
X344352Y458897D01*
X341640Y461609D01*
X336217Y461609D01*
X333505Y458897D01*
X333505Y453474D01*
X336217Y450762D01*
X349877Y450762D02*
X349877Y453474D01*
X352588Y453474D01*
X352588Y450762D01*
X349877Y450762D01*
X363486Y445339D02*
X366197Y445339D01*
X368909Y448050D01*
X368909Y461609D01*
X360774Y461609D01*
X358062Y458897D01*
X358062Y453474D01*
X360774Y450762D01*
X368909Y450762D01*
X374434Y467032D02*
X377146Y467032D01*
X377146Y450762D01*
X379857Y450762D02*
X374434Y450762D01*
X385348Y450762D02*
X396195Y467032D01*
X401720Y467032D02*
X401720Y450762D01*
X401720Y458897D02*
X412567Y458897D01*
X412567Y467032D02*
X412567Y450762D01*
X428938Y445339D02*
X428938Y461609D01*
X420803Y461609D01*
X418092Y458897D01*
X418092Y453474D01*
X420803Y450762D01*
X428938Y450762D01*
X434463Y467032D02*
X445310Y467032D01*
X434463Y467032D02*
X434463Y458897D01*
X439886Y461609D01*
X442598Y461609D01*
X445310Y458897D01*
X445310Y453474D01*
X442598Y450762D01*
X437175Y450762D01*
X434463Y453474D01*
X450835Y450762D02*
X450835Y467032D01*
X461681Y467032D02*
X450835Y456185D01*
X453546Y458897D02*
X461681Y450762D01*
X469918Y461609D02*
X478053Y461609D01*
X469918Y461609D02*
X467206Y458897D01*
X467206Y453474D01*
X469918Y450762D01*
X478053Y450762D01*
D11*
X87781Y279381D02*
X86213Y280949D01*
X86213Y284084D01*
X87781Y285652D01*
X89348Y285652D01*
X90916Y284084D01*
X90916Y282516D01*
X90916Y284084D02*
X92484Y285652D01*
X94051Y285652D01*
X95619Y284084D01*
X95619Y280949D01*
X94051Y279381D01*
X95619Y288736D02*
X95619Y295007D01*
X95619Y288736D02*
X89348Y295007D01*
X87781Y295007D01*
X86213Y293439D01*
X86213Y290304D01*
X87781Y288736D01*
X86213Y298091D02*
X95619Y298091D01*
X92484Y298091D02*
X95619Y302794D01*
X92484Y298091D02*
X89348Y302794D01*
X86213Y305887D02*
X95619Y305887D01*
X86213Y305887D02*
X86213Y310590D01*
X87781Y312158D01*
X89348Y312158D01*
X90916Y310590D01*
X92484Y312158D01*
X94051Y312158D01*
X95619Y310590D01*
X95619Y305887D01*
X90916Y305887D02*
X90916Y310590D01*
X92484Y324598D02*
X86213Y324598D01*
X92484Y324598D02*
X95619Y327733D01*
X92484Y330868D01*
X86213Y330868D01*
X89348Y335521D02*
X89348Y338656D01*
X90916Y340224D01*
X95619Y340224D01*
X95619Y335521D01*
X94051Y333953D01*
X92484Y335521D01*
X92484Y340224D01*
X95619Y343308D02*
X89348Y343308D01*
X89348Y346443D02*
X92484Y343308D01*
X89348Y346443D02*
X89348Y348011D01*
X89348Y351104D02*
X89348Y352672D01*
X95619Y352672D01*
X95619Y354239D02*
X95619Y351104D01*
X86213Y352672D02*
X84645Y352672D01*
X89348Y358909D02*
X89348Y362044D01*
X90916Y363612D01*
X95619Y363612D01*
X95619Y358909D01*
X94051Y357341D01*
X92484Y358909D01*
X92484Y363612D01*
X95619Y366696D02*
X89348Y366696D01*
X89348Y371399D01*
X90916Y372967D01*
X95619Y372967D01*
X94051Y377619D02*
X87781Y377619D01*
X94051Y377619D02*
X95619Y379187D01*
X89348Y379187D02*
X89348Y376051D01*
D12*
X79500Y236950D02*
X163500Y236950D01*
X79500Y236950D02*
X79500Y389950D01*
X163500Y389950D01*
X163500Y236950D01*
D13*
X148403Y248740D02*
X148405Y248849D01*
X148411Y248959D01*
X148421Y249068D01*
X148435Y249176D01*
X148453Y249284D01*
X148475Y249392D01*
X148500Y249498D01*
X148530Y249603D01*
X148564Y249708D01*
X148601Y249811D01*
X148642Y249912D01*
X148686Y250012D01*
X148735Y250110D01*
X148786Y250207D01*
X148842Y250301D01*
X148901Y250394D01*
X148963Y250484D01*
X149028Y250572D01*
X149096Y250657D01*
X149168Y250740D01*
X149242Y250820D01*
X149320Y250898D01*
X149400Y250972D01*
X149483Y251044D01*
X149568Y251112D01*
X149656Y251177D01*
X149746Y251239D01*
X149839Y251298D01*
X149933Y251354D01*
X150030Y251405D01*
X150128Y251454D01*
X150228Y251498D01*
X150329Y251539D01*
X150432Y251576D01*
X150537Y251610D01*
X150642Y251640D01*
X150748Y251665D01*
X150856Y251687D01*
X150964Y251705D01*
X151072Y251719D01*
X151181Y251729D01*
X151291Y251735D01*
X151400Y251737D01*
X151509Y251735D01*
X151619Y251729D01*
X151728Y251719D01*
X151836Y251705D01*
X151944Y251687D01*
X152052Y251665D01*
X152158Y251640D01*
X152263Y251610D01*
X152368Y251576D01*
X152471Y251539D01*
X152572Y251498D01*
X152672Y251454D01*
X152770Y251405D01*
X152867Y251354D01*
X152961Y251298D01*
X153054Y251239D01*
X153144Y251177D01*
X153232Y251112D01*
X153317Y251044D01*
X153400Y250972D01*
X153480Y250898D01*
X153558Y250820D01*
X153632Y250740D01*
X153704Y250657D01*
X153772Y250572D01*
X153837Y250484D01*
X153899Y250394D01*
X153958Y250301D01*
X154014Y250207D01*
X154065Y250110D01*
X154114Y250012D01*
X154158Y249912D01*
X154199Y249811D01*
X154236Y249708D01*
X154270Y249603D01*
X154300Y249498D01*
X154325Y249392D01*
X154347Y249284D01*
X154365Y249176D01*
X154379Y249068D01*
X154389Y248959D01*
X154395Y248849D01*
X154397Y248740D01*
X154395Y248631D01*
X154389Y248521D01*
X154379Y248412D01*
X154365Y248304D01*
X154347Y248196D01*
X154325Y248088D01*
X154300Y247982D01*
X154270Y247877D01*
X154236Y247772D01*
X154199Y247669D01*
X154158Y247568D01*
X154114Y247468D01*
X154065Y247370D01*
X154014Y247273D01*
X153958Y247179D01*
X153899Y247086D01*
X153837Y246996D01*
X153772Y246908D01*
X153704Y246823D01*
X153632Y246740D01*
X153558Y246660D01*
X153480Y246582D01*
X153400Y246508D01*
X153317Y246436D01*
X153232Y246368D01*
X153144Y246303D01*
X153054Y246241D01*
X152961Y246182D01*
X152867Y246126D01*
X152770Y246075D01*
X152672Y246026D01*
X152572Y245982D01*
X152471Y245941D01*
X152368Y245904D01*
X152263Y245870D01*
X152158Y245840D01*
X152052Y245815D01*
X151944Y245793D01*
X151836Y245775D01*
X151728Y245761D01*
X151619Y245751D01*
X151509Y245745D01*
X151400Y245743D01*
X151291Y245745D01*
X151181Y245751D01*
X151072Y245761D01*
X150964Y245775D01*
X150856Y245793D01*
X150748Y245815D01*
X150642Y245840D01*
X150537Y245870D01*
X150432Y245904D01*
X150329Y245941D01*
X150228Y245982D01*
X150128Y246026D01*
X150030Y246075D01*
X149933Y246126D01*
X149839Y246182D01*
X149746Y246241D01*
X149656Y246303D01*
X149568Y246368D01*
X149483Y246436D01*
X149400Y246508D01*
X149320Y246582D01*
X149242Y246660D01*
X149168Y246740D01*
X149096Y246823D01*
X149028Y246908D01*
X148963Y246996D01*
X148901Y247086D01*
X148842Y247179D01*
X148786Y247273D01*
X148735Y247370D01*
X148686Y247468D01*
X148642Y247568D01*
X148601Y247669D01*
X148564Y247772D01*
X148530Y247877D01*
X148500Y247982D01*
X148475Y248088D01*
X148453Y248196D01*
X148435Y248304D01*
X148421Y248412D01*
X148411Y248521D01*
X148405Y248631D01*
X148403Y248740D01*
D14*
X87838Y233002D02*
X87838Y221308D01*
X91736Y229104D02*
X87838Y233002D01*
X91736Y229104D02*
X95634Y233002D01*
X95634Y221308D01*
X99532Y221308D02*
X99532Y233002D01*
X105379Y233002D01*
X107328Y231053D01*
X107328Y229104D01*
X105379Y227155D01*
X107328Y225206D01*
X107328Y223257D01*
X105379Y221308D01*
X99532Y221308D01*
X99532Y227155D02*
X105379Y227155D01*
X117073Y233002D02*
X119022Y231053D01*
X117073Y233002D02*
X113175Y233002D01*
X111226Y231053D01*
X111226Y223257D01*
X113175Y221308D01*
X117073Y221308D01*
X119022Y223257D01*
X122920Y229104D02*
X126818Y233002D01*
X126818Y221308D01*
X122920Y221308D02*
X130716Y221308D01*
X134614Y221308D02*
X134614Y233002D01*
X140461Y233002D01*
X142410Y231053D01*
X142410Y229104D01*
X140461Y227155D01*
X142410Y225206D01*
X142410Y223257D01*
X140461Y221308D01*
X134614Y221308D01*
X134614Y227155D02*
X140461Y227155D01*
X387080Y393448D02*
X387080Y405142D01*
X392927Y405142D01*
X394876Y403193D01*
X394876Y399295D01*
X392927Y397346D01*
X387080Y397346D01*
X390978Y397346D02*
X394876Y393448D01*
X398774Y401244D02*
X402672Y405142D01*
X402672Y393448D01*
X398774Y393448D02*
X406570Y393448D01*
D12*
X333300Y372300D02*
X324900Y363900D01*
D13*
X378000Y352000D02*
X378002Y352109D01*
X378008Y352218D01*
X378018Y352326D01*
X378032Y352434D01*
X378049Y352542D01*
X378071Y352649D01*
X378096Y352755D01*
X378126Y352859D01*
X378159Y352963D01*
X378196Y353066D01*
X378236Y353167D01*
X378280Y353266D01*
X378328Y353364D01*
X378380Y353461D01*
X378434Y353555D01*
X378492Y353647D01*
X378554Y353737D01*
X378619Y353824D01*
X378686Y353910D01*
X378757Y353993D01*
X378831Y354073D01*
X378908Y354150D01*
X378987Y354225D01*
X379069Y354296D01*
X379154Y354365D01*
X379241Y354430D01*
X379330Y354493D01*
X379422Y354551D01*
X379516Y354607D01*
X379611Y354659D01*
X379709Y354708D01*
X379808Y354753D01*
X379909Y354795D01*
X380011Y354832D01*
X380114Y354866D01*
X380219Y354897D01*
X380325Y354923D01*
X380431Y354946D01*
X380539Y354964D01*
X380647Y354979D01*
X380755Y354990D01*
X380864Y354997D01*
X380973Y355000D01*
X381082Y354999D01*
X381191Y354994D01*
X381299Y354985D01*
X381407Y354972D01*
X381515Y354955D01*
X381622Y354935D01*
X381728Y354910D01*
X381833Y354882D01*
X381937Y354850D01*
X382040Y354814D01*
X382142Y354774D01*
X382242Y354731D01*
X382340Y354684D01*
X382437Y354634D01*
X382531Y354580D01*
X382624Y354522D01*
X382715Y354462D01*
X382803Y354398D01*
X382889Y354331D01*
X382972Y354261D01*
X383053Y354188D01*
X383131Y354112D01*
X383206Y354033D01*
X383279Y353951D01*
X383348Y353867D01*
X383414Y353781D01*
X383477Y353692D01*
X383537Y353601D01*
X383594Y353508D01*
X383647Y353413D01*
X383696Y353316D01*
X383742Y353217D01*
X383784Y353117D01*
X383823Y353015D01*
X383858Y352911D01*
X383889Y352807D01*
X383917Y352702D01*
X383940Y352595D01*
X383960Y352488D01*
X383976Y352380D01*
X383988Y352272D01*
X383996Y352163D01*
X384000Y352054D01*
X384000Y351946D01*
X383996Y351837D01*
X383988Y351728D01*
X383976Y351620D01*
X383960Y351512D01*
X383940Y351405D01*
X383917Y351298D01*
X383889Y351193D01*
X383858Y351089D01*
X383823Y350985D01*
X383784Y350883D01*
X383742Y350783D01*
X383696Y350684D01*
X383647Y350587D01*
X383594Y350492D01*
X383537Y350399D01*
X383477Y350308D01*
X383414Y350219D01*
X383348Y350133D01*
X383279Y350049D01*
X383206Y349967D01*
X383131Y349888D01*
X383053Y349812D01*
X382972Y349739D01*
X382889Y349669D01*
X382803Y349602D01*
X382715Y349538D01*
X382624Y349478D01*
X382531Y349420D01*
X382437Y349366D01*
X382340Y349316D01*
X382242Y349269D01*
X382142Y349226D01*
X382040Y349186D01*
X381937Y349150D01*
X381833Y349118D01*
X381728Y349090D01*
X381622Y349065D01*
X381515Y349045D01*
X381407Y349028D01*
X381299Y349015D01*
X381191Y349006D01*
X381082Y349001D01*
X380973Y349000D01*
X380864Y349003D01*
X380755Y349010D01*
X380647Y349021D01*
X380539Y349036D01*
X380431Y349054D01*
X380325Y349077D01*
X380219Y349103D01*
X380114Y349134D01*
X380011Y349168D01*
X379909Y349205D01*
X379808Y349247D01*
X379709Y349292D01*
X379611Y349341D01*
X379516Y349393D01*
X379422Y349449D01*
X379330Y349507D01*
X379241Y349570D01*
X379154Y349635D01*
X379069Y349704D01*
X378987Y349775D01*
X378908Y349850D01*
X378831Y349927D01*
X378757Y350007D01*
X378686Y350090D01*
X378619Y350176D01*
X378554Y350263D01*
X378492Y350353D01*
X378434Y350445D01*
X378380Y350539D01*
X378328Y350636D01*
X378280Y350734D01*
X378236Y350833D01*
X378196Y350934D01*
X378159Y351037D01*
X378126Y351141D01*
X378096Y351245D01*
X378071Y351351D01*
X378049Y351458D01*
X378032Y351566D01*
X378018Y351674D01*
X378008Y351782D01*
X378002Y351891D01*
X378000Y352000D01*
D10*
X330962Y207929D02*
X330962Y197082D01*
X330962Y207929D02*
X336385Y213352D01*
X341809Y207929D01*
X341809Y197082D01*
X341809Y205217D02*
X330962Y205217D01*
X352757Y197082D02*
X352757Y213352D01*
X347334Y213352D02*
X358180Y213352D01*
X371840Y213352D02*
X371840Y197082D01*
X363705Y205217D02*
X371840Y213352D01*
X374552Y205217D02*
X363705Y205217D01*
X380077Y199794D02*
X382788Y197082D01*
X388212Y197082D01*
X390923Y199794D01*
X390923Y210640D01*
X388212Y213352D01*
X382788Y213352D01*
X380077Y210640D01*
X380077Y207929D01*
X382788Y205217D01*
X390923Y205217D01*
X396448Y197082D02*
X396448Y213352D01*
X407295Y213352D01*
X401872Y205217D02*
X396448Y205217D01*
X412820Y199794D02*
X412820Y210640D01*
X415531Y213352D01*
X420955Y213352D01*
X423666Y210640D01*
X423666Y199794D01*
X420955Y197082D01*
X415531Y197082D01*
X412820Y199794D01*
X423666Y210640D01*
X437326Y213352D02*
X437326Y197082D01*
X429191Y205217D02*
X437326Y213352D01*
X440038Y205217D02*
X429191Y205217D01*
X445563Y199794D02*
X445563Y210640D01*
X448275Y213352D01*
X453698Y213352D01*
X456410Y210640D01*
X456410Y199794D01*
X453698Y197082D01*
X448275Y197082D01*
X445563Y199794D01*
X456410Y210640D01*
X461935Y199794D02*
X464646Y197082D01*
X467358Y197082D01*
X470069Y199794D01*
X470069Y213352D01*
X467358Y213352D02*
X472781Y213352D01*
D14*
X248806Y437393D02*
X246857Y439342D01*
X242959Y439342D01*
X241010Y437393D01*
X241010Y429597D01*
X242959Y427648D01*
X246857Y427648D01*
X248806Y429597D01*
X252704Y435444D02*
X256602Y439342D01*
X256602Y427648D01*
X252704Y427648D02*
X260500Y427648D01*
D10*
X132970Y365142D02*
X105030Y365142D01*
X132970Y378858D02*
X133070Y378856D01*
X133169Y378850D01*
X133269Y378840D01*
X133367Y378827D01*
X133466Y378809D01*
X133563Y378788D01*
X133659Y378763D01*
X133755Y378734D01*
X133849Y378701D01*
X133942Y378665D01*
X134033Y378625D01*
X134123Y378581D01*
X134211Y378534D01*
X134297Y378484D01*
X134381Y378430D01*
X134463Y378373D01*
X134542Y378313D01*
X134620Y378249D01*
X134694Y378183D01*
X134766Y378114D01*
X134835Y378042D01*
X134901Y377968D01*
X134965Y377890D01*
X135025Y377811D01*
X135082Y377729D01*
X135136Y377645D01*
X135186Y377559D01*
X135233Y377471D01*
X135277Y377381D01*
X135317Y377290D01*
X135353Y377197D01*
X135386Y377103D01*
X135415Y377007D01*
X135440Y376911D01*
X135461Y376814D01*
X135479Y376715D01*
X135492Y376617D01*
X135502Y376517D01*
X135508Y376418D01*
X135510Y376318D01*
X105030Y378858D02*
X104930Y378856D01*
X104831Y378850D01*
X104731Y378840D01*
X104633Y378827D01*
X104534Y378809D01*
X104437Y378788D01*
X104341Y378763D01*
X104245Y378734D01*
X104151Y378701D01*
X104058Y378665D01*
X103967Y378625D01*
X103877Y378581D01*
X103789Y378534D01*
X103703Y378484D01*
X103619Y378430D01*
X103537Y378373D01*
X103458Y378313D01*
X103380Y378249D01*
X103306Y378183D01*
X103234Y378114D01*
X103165Y378042D01*
X103099Y377968D01*
X103035Y377890D01*
X102975Y377811D01*
X102918Y377729D01*
X102864Y377645D01*
X102814Y377559D01*
X102767Y377471D01*
X102723Y377381D01*
X102683Y377290D01*
X102647Y377197D01*
X102614Y377103D01*
X102585Y377007D01*
X102560Y376911D01*
X102539Y376814D01*
X102521Y376715D01*
X102508Y376617D01*
X102498Y376517D01*
X102492Y376418D01*
X102490Y376318D01*
X102490Y367682D02*
X102492Y367582D01*
X102498Y367483D01*
X102508Y367383D01*
X102521Y367285D01*
X102539Y367186D01*
X102560Y367089D01*
X102585Y366993D01*
X102614Y366897D01*
X102647Y366803D01*
X102683Y366710D01*
X102723Y366619D01*
X102767Y366529D01*
X102814Y366441D01*
X102864Y366355D01*
X102918Y366271D01*
X102975Y366189D01*
X103035Y366110D01*
X103099Y366032D01*
X103165Y365958D01*
X103234Y365886D01*
X103306Y365817D01*
X103380Y365751D01*
X103458Y365687D01*
X103537Y365627D01*
X103619Y365570D01*
X103703Y365516D01*
X103789Y365466D01*
X103877Y365419D01*
X103967Y365375D01*
X104058Y365335D01*
X104151Y365299D01*
X104245Y365266D01*
X104341Y365237D01*
X104437Y365212D01*
X104534Y365191D01*
X104633Y365173D01*
X104731Y365160D01*
X104831Y365150D01*
X104930Y365144D01*
X105030Y365142D01*
X132970Y365142D02*
X133070Y365144D01*
X133169Y365150D01*
X133269Y365160D01*
X133367Y365173D01*
X133466Y365191D01*
X133563Y365212D01*
X133659Y365237D01*
X133755Y365266D01*
X133849Y365299D01*
X133942Y365335D01*
X134033Y365375D01*
X134123Y365419D01*
X134211Y365466D01*
X134297Y365516D01*
X134381Y365570D01*
X134463Y365627D01*
X134542Y365687D01*
X134620Y365751D01*
X134694Y365817D01*
X134766Y365886D01*
X134835Y365958D01*
X134901Y366032D01*
X134965Y366110D01*
X135025Y366189D01*
X135082Y366271D01*
X135136Y366355D01*
X135186Y366441D01*
X135233Y366529D01*
X135277Y366619D01*
X135317Y366710D01*
X135353Y366803D01*
X135386Y366897D01*
X135415Y366993D01*
X135440Y367089D01*
X135461Y367186D01*
X135479Y367285D01*
X135492Y367383D01*
X135502Y367483D01*
X135508Y367582D01*
X135510Y367682D01*
X135510Y376318D01*
X102490Y376318D02*
X102490Y367682D01*
X105030Y378858D02*
X132970Y378858D01*
X132970Y351142D02*
X105030Y351142D01*
X132970Y364858D02*
X133070Y364856D01*
X133169Y364850D01*
X133269Y364840D01*
X133367Y364827D01*
X133466Y364809D01*
X133563Y364788D01*
X133659Y364763D01*
X133755Y364734D01*
X133849Y364701D01*
X133942Y364665D01*
X134033Y364625D01*
X134123Y364581D01*
X134211Y364534D01*
X134297Y364484D01*
X134381Y364430D01*
X134463Y364373D01*
X134542Y364313D01*
X134620Y364249D01*
X134694Y364183D01*
X134766Y364114D01*
X134835Y364042D01*
X134901Y363968D01*
X134965Y363890D01*
X135025Y363811D01*
X135082Y363729D01*
X135136Y363645D01*
X135186Y363559D01*
X135233Y363471D01*
X135277Y363381D01*
X135317Y363290D01*
X135353Y363197D01*
X135386Y363103D01*
X135415Y363007D01*
X135440Y362911D01*
X135461Y362814D01*
X135479Y362715D01*
X135492Y362617D01*
X135502Y362517D01*
X135508Y362418D01*
X135510Y362318D01*
X105030Y364858D02*
X104930Y364856D01*
X104831Y364850D01*
X104731Y364840D01*
X104633Y364827D01*
X104534Y364809D01*
X104437Y364788D01*
X104341Y364763D01*
X104245Y364734D01*
X104151Y364701D01*
X104058Y364665D01*
X103967Y364625D01*
X103877Y364581D01*
X103789Y364534D01*
X103703Y364484D01*
X103619Y364430D01*
X103537Y364373D01*
X103458Y364313D01*
X103380Y364249D01*
X103306Y364183D01*
X103234Y364114D01*
X103165Y364042D01*
X103099Y363968D01*
X103035Y363890D01*
X102975Y363811D01*
X102918Y363729D01*
X102864Y363645D01*
X102814Y363559D01*
X102767Y363471D01*
X102723Y363381D01*
X102683Y363290D01*
X102647Y363197D01*
X102614Y363103D01*
X102585Y363007D01*
X102560Y362911D01*
X102539Y362814D01*
X102521Y362715D01*
X102508Y362617D01*
X102498Y362517D01*
X102492Y362418D01*
X102490Y362318D01*
X102490Y353682D02*
X102492Y353582D01*
X102498Y353483D01*
X102508Y353383D01*
X102521Y353285D01*
X102539Y353186D01*
X102560Y353089D01*
X102585Y352993D01*
X102614Y352897D01*
X102647Y352803D01*
X102683Y352710D01*
X102723Y352619D01*
X102767Y352529D01*
X102814Y352441D01*
X102864Y352355D01*
X102918Y352271D01*
X102975Y352189D01*
X103035Y352110D01*
X103099Y352032D01*
X103165Y351958D01*
X103234Y351886D01*
X103306Y351817D01*
X103380Y351751D01*
X103458Y351687D01*
X103537Y351627D01*
X103619Y351570D01*
X103703Y351516D01*
X103789Y351466D01*
X103877Y351419D01*
X103967Y351375D01*
X104058Y351335D01*
X104151Y351299D01*
X104245Y351266D01*
X104341Y351237D01*
X104437Y351212D01*
X104534Y351191D01*
X104633Y351173D01*
X104731Y351160D01*
X104831Y351150D01*
X104930Y351144D01*
X105030Y351142D01*
X132970Y351142D02*
X133070Y351144D01*
X133169Y351150D01*
X133269Y351160D01*
X133367Y351173D01*
X133466Y351191D01*
X133563Y351212D01*
X133659Y351237D01*
X133755Y351266D01*
X133849Y351299D01*
X133942Y351335D01*
X134033Y351375D01*
X134123Y351419D01*
X134211Y351466D01*
X134297Y351516D01*
X134381Y351570D01*
X134463Y351627D01*
X134542Y351687D01*
X134620Y351751D01*
X134694Y351817D01*
X134766Y351886D01*
X134835Y351958D01*
X134901Y352032D01*
X134965Y352110D01*
X135025Y352189D01*
X135082Y352271D01*
X135136Y352355D01*
X135186Y352441D01*
X135233Y352529D01*
X135277Y352619D01*
X135317Y352710D01*
X135353Y352803D01*
X135386Y352897D01*
X135415Y352993D01*
X135440Y353089D01*
X135461Y353186D01*
X135479Y353285D01*
X135492Y353383D01*
X135502Y353483D01*
X135508Y353582D01*
X135510Y353682D01*
X135510Y362318D01*
X102490Y362318D02*
X102490Y353682D01*
X105030Y364858D02*
X132970Y364858D01*
X132970Y337142D02*
X105030Y337142D01*
X132970Y350858D02*
X133070Y350856D01*
X133169Y350850D01*
X133269Y350840D01*
X133367Y350827D01*
X133466Y350809D01*
X133563Y350788D01*
X133659Y350763D01*
X133755Y350734D01*
X133849Y350701D01*
X133942Y350665D01*
X134033Y350625D01*
X134123Y350581D01*
X134211Y350534D01*
X134297Y350484D01*
X134381Y350430D01*
X134463Y350373D01*
X134542Y350313D01*
X134620Y350249D01*
X134694Y350183D01*
X134766Y350114D01*
X134835Y350042D01*
X134901Y349968D01*
X134965Y349890D01*
X135025Y349811D01*
X135082Y349729D01*
X135136Y349645D01*
X135186Y349559D01*
X135233Y349471D01*
X135277Y349381D01*
X135317Y349290D01*
X135353Y349197D01*
X135386Y349103D01*
X135415Y349007D01*
X135440Y348911D01*
X135461Y348814D01*
X135479Y348715D01*
X135492Y348617D01*
X135502Y348517D01*
X135508Y348418D01*
X135510Y348318D01*
X105030Y350858D02*
X104930Y350856D01*
X104831Y350850D01*
X104731Y350840D01*
X104633Y350827D01*
X104534Y350809D01*
X104437Y350788D01*
X104341Y350763D01*
X104245Y350734D01*
X104151Y350701D01*
X104058Y350665D01*
X103967Y350625D01*
X103877Y350581D01*
X103789Y350534D01*
X103703Y350484D01*
X103619Y350430D01*
X103537Y350373D01*
X103458Y350313D01*
X103380Y350249D01*
X103306Y350183D01*
X103234Y350114D01*
X103165Y350042D01*
X103099Y349968D01*
X103035Y349890D01*
X102975Y349811D01*
X102918Y349729D01*
X102864Y349645D01*
X102814Y349559D01*
X102767Y349471D01*
X102723Y349381D01*
X102683Y349290D01*
X102647Y349197D01*
X102614Y349103D01*
X102585Y349007D01*
X102560Y348911D01*
X102539Y348814D01*
X102521Y348715D01*
X102508Y348617D01*
X102498Y348517D01*
X102492Y348418D01*
X102490Y348318D01*
X102490Y339682D02*
X102492Y339582D01*
X102498Y339483D01*
X102508Y339383D01*
X102521Y339285D01*
X102539Y339186D01*
X102560Y339089D01*
X102585Y338993D01*
X102614Y338897D01*
X102647Y338803D01*
X102683Y338710D01*
X102723Y338619D01*
X102767Y338529D01*
X102814Y338441D01*
X102864Y338355D01*
X102918Y338271D01*
X102975Y338189D01*
X103035Y338110D01*
X103099Y338032D01*
X103165Y337958D01*
X103234Y337886D01*
X103306Y337817D01*
X103380Y337751D01*
X103458Y337687D01*
X103537Y337627D01*
X103619Y337570D01*
X103703Y337516D01*
X103789Y337466D01*
X103877Y337419D01*
X103967Y337375D01*
X104058Y337335D01*
X104151Y337299D01*
X104245Y337266D01*
X104341Y337237D01*
X104437Y337212D01*
X104534Y337191D01*
X104633Y337173D01*
X104731Y337160D01*
X104831Y337150D01*
X104930Y337144D01*
X105030Y337142D01*
X132970Y337142D02*
X133070Y337144D01*
X133169Y337150D01*
X133269Y337160D01*
X133367Y337173D01*
X133466Y337191D01*
X133563Y337212D01*
X133659Y337237D01*
X133755Y337266D01*
X133849Y337299D01*
X133942Y337335D01*
X134033Y337375D01*
X134123Y337419D01*
X134211Y337466D01*
X134297Y337516D01*
X134381Y337570D01*
X134463Y337627D01*
X134542Y337687D01*
X134620Y337751D01*
X134694Y337817D01*
X134766Y337886D01*
X134835Y337958D01*
X134901Y338032D01*
X134965Y338110D01*
X135025Y338189D01*
X135082Y338271D01*
X135136Y338355D01*
X135186Y338441D01*
X135233Y338529D01*
X135277Y338619D01*
X135317Y338710D01*
X135353Y338803D01*
X135386Y338897D01*
X135415Y338993D01*
X135440Y339089D01*
X135461Y339186D01*
X135479Y339285D01*
X135492Y339383D01*
X135502Y339483D01*
X135508Y339582D01*
X135510Y339682D01*
X135510Y348318D01*
X102490Y348318D02*
X102490Y339682D01*
X105030Y350858D02*
X132970Y350858D01*
X136522Y314970D02*
X136522Y287030D01*
X147698Y284490D02*
X147798Y284492D01*
X147897Y284498D01*
X147997Y284508D01*
X148095Y284521D01*
X148194Y284539D01*
X148291Y284560D01*
X148387Y284585D01*
X148483Y284614D01*
X148577Y284647D01*
X148670Y284683D01*
X148761Y284723D01*
X148851Y284767D01*
X148939Y284814D01*
X149025Y284864D01*
X149109Y284918D01*
X149191Y284975D01*
X149270Y285035D01*
X149348Y285099D01*
X149422Y285165D01*
X149494Y285234D01*
X149563Y285306D01*
X149629Y285380D01*
X149693Y285458D01*
X149753Y285537D01*
X149810Y285619D01*
X149864Y285703D01*
X149914Y285789D01*
X149961Y285877D01*
X150005Y285967D01*
X150045Y286058D01*
X150081Y286151D01*
X150114Y286245D01*
X150143Y286341D01*
X150168Y286437D01*
X150189Y286534D01*
X150207Y286633D01*
X150220Y286731D01*
X150230Y286831D01*
X150236Y286930D01*
X150238Y287030D01*
X150238Y314970D02*
X150236Y315070D01*
X150230Y315169D01*
X150220Y315269D01*
X150207Y315367D01*
X150189Y315466D01*
X150168Y315563D01*
X150143Y315659D01*
X150114Y315755D01*
X150081Y315849D01*
X150045Y315942D01*
X150005Y316033D01*
X149961Y316123D01*
X149914Y316211D01*
X149864Y316297D01*
X149810Y316381D01*
X149753Y316463D01*
X149693Y316542D01*
X149629Y316620D01*
X149563Y316694D01*
X149494Y316766D01*
X149422Y316835D01*
X149348Y316901D01*
X149270Y316965D01*
X149191Y317025D01*
X149109Y317082D01*
X149025Y317136D01*
X148939Y317186D01*
X148851Y317233D01*
X148761Y317277D01*
X148670Y317317D01*
X148577Y317353D01*
X148483Y317386D01*
X148387Y317415D01*
X148291Y317440D01*
X148194Y317461D01*
X148095Y317479D01*
X147997Y317492D01*
X147897Y317502D01*
X147798Y317508D01*
X147698Y317510D01*
X139062Y317510D02*
X138962Y317508D01*
X138863Y317502D01*
X138763Y317492D01*
X138665Y317479D01*
X138566Y317461D01*
X138469Y317440D01*
X138373Y317415D01*
X138277Y317386D01*
X138183Y317353D01*
X138090Y317317D01*
X137999Y317277D01*
X137909Y317233D01*
X137821Y317186D01*
X137735Y317136D01*
X137651Y317082D01*
X137569Y317025D01*
X137490Y316965D01*
X137412Y316901D01*
X137338Y316835D01*
X137266Y316766D01*
X137197Y316694D01*
X137131Y316620D01*
X137067Y316542D01*
X137007Y316463D01*
X136950Y316381D01*
X136896Y316297D01*
X136846Y316211D01*
X136799Y316123D01*
X136755Y316033D01*
X136715Y315942D01*
X136679Y315849D01*
X136646Y315755D01*
X136617Y315659D01*
X136592Y315563D01*
X136571Y315466D01*
X136553Y315367D01*
X136540Y315269D01*
X136530Y315169D01*
X136524Y315070D01*
X136522Y314970D01*
X136522Y287030D02*
X136524Y286930D01*
X136530Y286831D01*
X136540Y286731D01*
X136553Y286633D01*
X136571Y286534D01*
X136592Y286437D01*
X136617Y286341D01*
X136646Y286245D01*
X136679Y286151D01*
X136715Y286058D01*
X136755Y285967D01*
X136799Y285877D01*
X136846Y285789D01*
X136896Y285703D01*
X136950Y285619D01*
X137007Y285537D01*
X137067Y285458D01*
X137131Y285380D01*
X137197Y285306D01*
X137266Y285234D01*
X137338Y285165D01*
X137412Y285099D01*
X137490Y285035D01*
X137569Y284975D01*
X137651Y284918D01*
X137735Y284864D01*
X137821Y284814D01*
X137909Y284767D01*
X137999Y284723D01*
X138090Y284683D01*
X138183Y284647D01*
X138277Y284614D01*
X138373Y284585D01*
X138469Y284560D01*
X138566Y284539D01*
X138665Y284521D01*
X138763Y284508D01*
X138863Y284498D01*
X138962Y284492D01*
X139062Y284490D01*
X147698Y284490D01*
X147698Y317510D02*
X139062Y317510D01*
X150238Y314970D02*
X150238Y287030D01*
X121522Y287030D02*
X121522Y314970D01*
X135238Y287030D02*
X135236Y286930D01*
X135230Y286831D01*
X135220Y286731D01*
X135207Y286633D01*
X135189Y286534D01*
X135168Y286437D01*
X135143Y286341D01*
X135114Y286245D01*
X135081Y286151D01*
X135045Y286058D01*
X135005Y285967D01*
X134961Y285877D01*
X134914Y285789D01*
X134864Y285703D01*
X134810Y285619D01*
X134753Y285537D01*
X134693Y285458D01*
X134629Y285380D01*
X134563Y285306D01*
X134494Y285234D01*
X134422Y285165D01*
X134348Y285099D01*
X134270Y285035D01*
X134191Y284975D01*
X134109Y284918D01*
X134025Y284864D01*
X133939Y284814D01*
X133851Y284767D01*
X133761Y284723D01*
X133670Y284683D01*
X133577Y284647D01*
X133483Y284614D01*
X133387Y284585D01*
X133291Y284560D01*
X133194Y284539D01*
X133095Y284521D01*
X132997Y284508D01*
X132897Y284498D01*
X132798Y284492D01*
X132698Y284490D01*
X135238Y314970D02*
X135236Y315070D01*
X135230Y315169D01*
X135220Y315269D01*
X135207Y315367D01*
X135189Y315466D01*
X135168Y315563D01*
X135143Y315659D01*
X135114Y315755D01*
X135081Y315849D01*
X135045Y315942D01*
X135005Y316033D01*
X134961Y316123D01*
X134914Y316211D01*
X134864Y316297D01*
X134810Y316381D01*
X134753Y316463D01*
X134693Y316542D01*
X134629Y316620D01*
X134563Y316694D01*
X134494Y316766D01*
X134422Y316835D01*
X134348Y316901D01*
X134270Y316965D01*
X134191Y317025D01*
X134109Y317082D01*
X134025Y317136D01*
X133939Y317186D01*
X133851Y317233D01*
X133761Y317277D01*
X133670Y317317D01*
X133577Y317353D01*
X133483Y317386D01*
X133387Y317415D01*
X133291Y317440D01*
X133194Y317461D01*
X133095Y317479D01*
X132997Y317492D01*
X132897Y317502D01*
X132798Y317508D01*
X132698Y317510D01*
X124062Y317510D02*
X123962Y317508D01*
X123863Y317502D01*
X123763Y317492D01*
X123665Y317479D01*
X123566Y317461D01*
X123469Y317440D01*
X123373Y317415D01*
X123277Y317386D01*
X123183Y317353D01*
X123090Y317317D01*
X122999Y317277D01*
X122909Y317233D01*
X122821Y317186D01*
X122735Y317136D01*
X122651Y317082D01*
X122569Y317025D01*
X122490Y316965D01*
X122412Y316901D01*
X122338Y316835D01*
X122266Y316766D01*
X122197Y316694D01*
X122131Y316620D01*
X122067Y316542D01*
X122007Y316463D01*
X121950Y316381D01*
X121896Y316297D01*
X121846Y316211D01*
X121799Y316123D01*
X121755Y316033D01*
X121715Y315942D01*
X121679Y315849D01*
X121646Y315755D01*
X121617Y315659D01*
X121592Y315563D01*
X121571Y315466D01*
X121553Y315367D01*
X121540Y315269D01*
X121530Y315169D01*
X121524Y315070D01*
X121522Y314970D01*
X121522Y287030D02*
X121524Y286930D01*
X121530Y286831D01*
X121540Y286731D01*
X121553Y286633D01*
X121571Y286534D01*
X121592Y286437D01*
X121617Y286341D01*
X121646Y286245D01*
X121679Y286151D01*
X121715Y286058D01*
X121755Y285967D01*
X121799Y285877D01*
X121846Y285789D01*
X121896Y285703D01*
X121950Y285619D01*
X122007Y285537D01*
X122067Y285458D01*
X122131Y285380D01*
X122197Y285306D01*
X122266Y285234D01*
X122338Y285165D01*
X122412Y285099D01*
X122490Y285035D01*
X122569Y284975D01*
X122651Y284918D01*
X122735Y284864D01*
X122821Y284814D01*
X122909Y284767D01*
X122999Y284723D01*
X123090Y284683D01*
X123183Y284647D01*
X123277Y284614D01*
X123373Y284585D01*
X123469Y284560D01*
X123566Y284539D01*
X123665Y284521D01*
X123763Y284508D01*
X123863Y284498D01*
X123962Y284492D01*
X124062Y284490D01*
X132698Y284490D01*
X132698Y317510D02*
X124062Y317510D01*
X135238Y314970D02*
X135238Y287030D01*
M02*
