G04 EAGLE Gerber RS-274X export*
G75*
%MOMM*%
%FSLAX34Y34*%
%LPD*%
%INSolderpaste Top*%
%IPPOS*%
%AMOC8*
5,1,8,0,0,1.08239X$1,22.5*%
G01*
%ADD10R,2.000000X1.200000*%
%ADD11R,2.000000X0.600000*%
%ADD12R,1.400000X6.000000*%
%ADD13R,1.000000X6.000000*%
%ADD14R,1.300000X1.600000*%
%ADD15R,0.600000X2.200000*%
%ADD16R,2.200000X0.600000*%
%ADD17R,1.300000X1.500000*%
%ADD18R,1.168400X0.762000*%
%ADD19R,0.762000X1.168400*%


D10*
X179500Y239500D03*
D11*
X179500Y255400D03*
X179500Y268300D03*
X179500Y281200D03*
X179500Y294100D03*
X179500Y307000D03*
X179500Y319900D03*
X179500Y332800D03*
X179500Y345700D03*
X179500Y358600D03*
X179500Y371500D03*
D10*
X179500Y387400D03*
X63500Y239500D03*
D11*
X63500Y255400D03*
X63500Y268300D03*
X63500Y281200D03*
X63500Y294100D03*
X63500Y307000D03*
X63500Y319900D03*
X63500Y332800D03*
X63500Y345700D03*
X63500Y358600D03*
X63500Y371500D03*
D10*
X63500Y387400D03*
D12*
X20500Y40000D03*
D13*
X37500Y40000D03*
X67500Y40000D03*
X82500Y40000D03*
X97500Y40000D03*
X112500Y40000D03*
X127500Y40000D03*
X142500Y40000D03*
X157500Y40000D03*
X172500Y40000D03*
X187500Y40000D03*
X202500Y40000D03*
X217500Y40000D03*
X232500Y40000D03*
X247500Y40000D03*
X262500Y40000D03*
X277500Y40000D03*
X292500Y40000D03*
X307500Y40000D03*
X322500Y40000D03*
X52500Y40000D03*
X337500Y40000D03*
X352500Y40000D03*
X367500Y40000D03*
X382500Y40000D03*
X397500Y40000D03*
X412500Y40000D03*
X427500Y40000D03*
X442500Y40000D03*
X457500Y40000D03*
X472500Y40000D03*
D12*
X489500Y40000D03*
D14*
X409300Y415800D03*
X390300Y415800D03*
D15*
X381000Y372000D03*
X368300Y372000D03*
X355600Y372000D03*
X342900Y372000D03*
D16*
X324000Y341100D03*
X324000Y328400D03*
X324000Y315700D03*
X324000Y303000D03*
X324000Y290300D03*
X324000Y277600D03*
X324000Y264900D03*
X324000Y353800D03*
X324000Y252200D03*
D15*
X342900Y234000D03*
X355600Y234000D03*
X368300Y234000D03*
X381000Y234000D03*
X393700Y234000D03*
X406400Y234000D03*
X419100Y234000D03*
D16*
X438000Y252200D03*
X438000Y264900D03*
X438000Y277600D03*
X438000Y290300D03*
X438000Y303000D03*
X438000Y315700D03*
X438000Y328400D03*
X438000Y341100D03*
X438000Y353800D03*
D15*
X419100Y372000D03*
X406400Y372000D03*
X393700Y372000D03*
D17*
X264500Y450000D03*
X245500Y450000D03*
D18*
X111380Y372000D03*
X126620Y372000D03*
X111380Y358000D03*
X126620Y358000D03*
X111380Y344000D03*
X126620Y344000D03*
D19*
X143380Y308620D03*
X143380Y293380D03*
X128380Y308620D03*
X128380Y293380D03*
M02*
