M48
;GenerationSoftware,Autodesk,EAGLE,9.4.0*%
;CreationDate,2019-05-06T13:45:44Z*%
FMAT,2
ICI,OFF
METRIC,TZ,000.000
T3C0.350
T2C2.200
T1C7.300
%
G90
M71
T1
X25500Y15650
T2
X25500Y40700
T3
X36830Y18500
X12700Y40000
X17950Y40200
X28000Y24600
X29200Y27700
X25300Y24000
X28300Y29000
X24200Y23000
X28500Y30900
X22900Y21600
X27300Y31600
X8250Y18200
X8250Y25500
X32800Y10700
X41000Y26500
X13100Y28100
X30700Y9200
X11400Y29338
X29200Y8200
X10200Y30700
X38400Y33200
X32000Y11400
X11600Y31990
X25500Y37844
X43700Y39100
X21560Y35860
X22100Y19800
X26200Y32800
X20900Y17500
X26000Y34100
X25300Y35200
X20100Y15400
X30300Y19100
X48800Y8700
X31000Y17000
X41000Y31200
X32200Y14900
X41000Y27800
X41000Y32800
X41000Y29700
X29900Y24000
X29900Y37800
X23000Y45200
X31600Y13400
M30